<svg id="svg" version="1.1" xmlns="http://www.w3.org/2000/svg" xmlns:xlink="http://www.w3.org/1999/xlink" width="400" height="435.04531722054384" viewBox="0, 0, 400,435.04531722054384"><g id="svgg"><path id="path0" d="M67.351 239.149 C 66.913 239.660,66.174 239.800,64.188 239.747 C 62.224 239.694,61.513 239.826,61.253 240.291 C 61.031 240.688,60.223 240.935,58.955 240.992 C 56.395 241.109,56.400 241.107,56.400 241.770 C 56.400 242.186,56.028 242.294,55.023 242.169 C 54.034 242.046,53.499 242.195,53.123 242.699 C 52.835 243.085,51.995 243.439,51.256 243.487 C 50.517 243.535,49.645 243.797,49.317 244.069 C 48.990 244.340,48.366 244.617,47.930 244.684 C 47.495 244.750,46.869 245.073,46.541 245.402 C 46.212 245.731,45.615 246.000,45.214 246.000 C 44.813 246.000,44.382 246.270,44.255 246.600 C 44.129 246.930,43.589 247.200,43.055 247.200 C 42.522 247.200,41.982 247.470,41.855 247.800 C 41.729 248.130,41.281 248.400,40.862 248.400 C 40.442 248.400,39.874 248.670,39.600 249.000 C 39.326 249.330,38.854 249.600,38.551 249.600 C 38.248 249.600,38.000 249.870,38.000 250.200 C 38.000 250.566,37.627 250.800,37.043 250.800 C 36.516 250.800,35.982 251.070,35.855 251.400 C 35.729 251.730,35.349 252.000,35.013 252.000 C 34.676 252.000,34.400 252.270,34.400 252.600 C 34.400 252.930,34.130 253.200,33.800 253.200 C 33.470 253.200,33.200 253.470,33.200 253.800 C 33.200 254.130,32.930 254.400,32.600 254.400 C 32.270 254.400,32.000 254.670,32.000 255.000 C 32.000 255.330,31.714 255.600,31.364 255.600 C 31.014 255.600,30.195 256.095,29.542 256.700 C 28.890 257.305,27.556 258.547,26.578 259.460 C 25.566 260.405,24.800 261.482,24.800 261.960 C 24.800 262.440,24.543 262.800,24.200 262.800 C 23.870 262.800,23.600 263.070,23.600 263.400 C 23.600 263.730,23.330 264.000,23.000 264.000 C 22.670 264.000,22.400 264.233,22.400 264.519 C 22.400 264.804,21.868 265.479,21.217 266.019 C 20.566 266.558,20.026 267.405,20.017 267.900 C 20.007 268.426,19.751 268.800,19.400 268.800 C 19.070 268.800,18.800 268.993,18.800 269.229 C 18.800 269.464,18.530 269.927,18.200 270.257 C 17.870 270.587,17.600 271.185,17.600 271.586 C 17.600 271.987,17.330 272.418,17.000 272.545 C 16.670 272.671,16.400 273.211,16.400 273.745 C 16.400 274.278,16.130 274.818,15.800 274.945 C 15.470 275.071,15.200 275.611,15.200 276.145 C 15.200 276.678,14.930 277.218,14.600 277.345 C 14.270 277.471,14.000 278.043,14.000 278.616 C 14.000 279.189,13.730 279.927,13.400 280.257 C 13.070 280.587,12.800 281.384,12.800 282.029 C 12.800 282.803,12.597 283.200,12.200 283.200 C 11.756 283.200,11.600 283.667,11.600 285.000 C 11.600 286.333,11.444 286.800,11.000 286.800 C 10.535 286.800,10.400 287.329,10.400 289.157 C 10.400 290.884,10.239 291.576,9.800 291.745 C 9.347 291.919,9.200 292.652,9.200 294.745 C 9.200 296.838,9.053 297.571,8.600 297.745 C 7.713 298.085,7.693 328.588,8.580 329.085 C 8.979 329.308,9.197 330.278,9.280 332.204 C 9.365 334.178,9.547 334.971,9.900 334.900 C 10.256 334.829,10.400 335.496,10.400 337.213 C 10.400 338.988,10.558 339.686,11.000 339.855 C 11.387 340.004,11.600 340.623,11.600 341.600 C 11.600 342.577,11.813 343.196,12.200 343.345 C 12.551 343.479,12.800 344.079,12.800 344.787 C 12.800 345.599,12.999 346.000,13.400 346.000 C 13.925 346.000,14.266 347.792,13.900 348.628 C 13.845 348.754,14.101 349.025,14.469 349.231 C 14.837 349.436,15.256 350.144,15.401 350.802 C 15.545 351.461,15.829 352.000,16.032 352.000 C 16.234 352.000,16.400 352.270,16.400 352.600 C 16.400 352.930,16.670 353.200,17.000 353.200 C 17.400 353.200,17.600 353.600,17.600 354.400 C 17.600 355.200,17.800 355.600,18.200 355.600 C 18.530 355.600,18.800 355.947,18.800 356.371 C 18.800 356.796,19.070 357.413,19.400 357.743 C 19.730 358.073,20.000 358.536,20.000 358.771 C 20.000 359.007,20.270 359.200,20.600 359.200 C 20.930 359.200,21.200 359.470,21.200 359.800 C 21.200 360.130,21.470 360.400,21.800 360.400 C 22.175 360.400,22.400 360.779,22.400 361.413 C 22.400 361.969,22.670 362.529,23.000 362.655 C 23.330 362.782,23.600 363.136,23.600 363.443 C 23.600 363.749,23.870 364.000,24.200 364.000 C 24.530 364.000,24.800 364.270,24.800 364.600 C 24.800 364.930,25.070 365.200,25.400 365.200 C 25.730 365.200,26.000 365.470,26.000 365.800 C 26.000 366.130,26.270 366.400,26.600 366.400 C 26.930 366.400,27.200 366.670,27.200 367.000 C 27.200 367.330,27.443 367.600,27.740 367.600 C 28.037 367.600,28.694 368.140,29.200 368.800 C 29.761 369.532,30.486 370.000,31.060 370.000 C 31.629 370.000,32.000 370.237,32.000 370.600 C 32.000 370.930,32.270 371.200,32.600 371.200 C 32.930 371.200,33.200 371.470,33.200 371.800 C 33.200 372.130,33.476 372.400,33.813 372.400 C 34.149 372.400,34.529 372.670,34.655 373.000 C 34.782 373.330,35.295 373.600,35.796 373.600 C 36.370 373.600,36.784 373.896,36.916 374.400 C 37.031 374.840,37.412 375.200,37.763 375.200 C 38.113 375.200,38.400 375.366,38.400 375.568 C 38.400 375.771,38.940 376.055,39.600 376.200 C 40.260 376.345,40.800 376.595,40.800 376.755 C 40.800 377.067,43.808 378.503,44.793 378.661 C 45.119 378.714,45.449 378.947,45.526 379.179 C 45.604 379.411,46.369 379.713,47.226 379.851 C 48.083 379.988,48.990 380.347,49.241 380.650 C 49.493 380.952,50.319 381.200,51.078 381.200 C 51.836 381.200,52.727 381.470,53.057 381.800 C 53.387 382.130,54.259 382.400,54.995 382.400 C 55.731 382.400,56.407 382.620,56.496 382.889 C 56.599 383.198,57.787 383.434,59.726 383.532 C 61.413 383.617,62.706 383.828,62.599 384.001 C 62.192 384.660,64.704 384.774,79.929 384.790 C 93.558 384.805,95.653 384.727,95.854 384.203 C 96.033 383.736,96.798 383.600,99.243 383.600 C 101.198 383.600,102.400 383.439,102.400 383.176 C 102.400 382.943,102.580 382.864,102.800 383.000 C 103.020 383.136,103.200 383.079,103.200 382.873 C 103.200 382.667,104.207 382.416,105.437 382.314 C 106.667 382.212,107.805 381.915,107.966 381.655 C 108.127 381.394,108.938 381.155,109.767 381.124 C 110.611 381.093,111.366 380.832,111.481 380.534 C 111.593 380.240,112.102 380.000,112.610 380.000 C 113.945 380.000,114.836 379.582,114.536 379.096 C 114.393 378.865,114.455 378.787,114.673 378.922 C 114.891 379.056,115.459 378.894,115.935 378.561 C 116.973 377.834,117.109 375.813,116.156 375.279 C 115.802 375.081,115.484 374.397,115.449 373.760 C 115.414 373.122,115.226 372.347,115.031 372.038 C 114.772 371.627,114.819 371.564,115.206 371.804 C 115.596 372.045,115.665 371.947,115.468 371.433 C 115.321 371.049,115.200 370.659,115.200 370.567 C 115.200 370.475,114.930 370.400,114.600 370.400 C 114.079 370.400,113.680 367.625,113.953 365.900 C 113.979 365.735,113.740 365.600,113.422 365.600 C 113.016 365.600,112.808 365.034,112.722 363.700 C 112.592 361.677,110.879 360.829,109.761 362.234 C 109.520 362.537,108.620 362.896,107.761 363.032 C 106.903 363.169,106.095 363.448,105.968 363.654 C 105.840 363.860,105.030 364.140,104.168 364.276 C 103.305 364.412,102.480 364.707,102.333 364.932 C 102.186 365.157,101.135 365.370,99.996 365.406 C 98.768 365.445,97.793 365.688,97.598 366.003 C 97.376 366.363,96.221 366.562,94.035 366.618 C 91.990 366.670,90.559 366.902,90.140 367.250 C 89.174 368.052,74.526 368.050,74.030 367.249 C 73.843 366.946,73.502 366.814,73.272 366.955 C 73.043 367.097,72.762 367.062,72.648 366.877 C 72.534 366.692,71.255 366.572,69.806 366.609 C 67.927 366.657,67.082 366.519,66.862 366.126 C 66.693 365.823,65.844 365.463,64.977 365.325 C 64.110 365.188,63.303 364.930,63.184 364.751 C 63.066 364.572,62.346 364.387,61.584 364.339 C 60.823 364.292,59.867 363.914,59.459 363.500 C 59.052 363.085,58.471 362.840,58.170 362.956 C 57.868 363.072,57.462 362.882,57.267 362.533 C 57.072 362.185,56.437 361.900,55.856 361.900 C 55.227 361.900,54.800 361.678,54.800 361.350 C 54.800 361.048,54.468 360.800,54.061 360.800 C 53.655 360.800,52.907 360.440,52.400 360.000 C 51.893 359.560,51.145 359.200,50.739 359.200 C 50.332 359.200,50.000 358.930,50.000 358.600 C 50.000 358.270,49.749 358.000,49.443 358.000 C 49.136 358.000,48.782 357.730,48.655 357.400 C 48.529 357.070,48.139 356.800,47.789 356.800 C 47.439 356.800,47.264 356.620,47.400 356.400 C 47.536 356.180,47.367 356.000,47.024 356.000 C 46.681 356.000,46.400 355.744,46.400 355.432 C 46.400 355.119,45.860 354.745,45.200 354.600 C 44.540 354.455,44.000 354.081,44.000 353.768 C 44.000 353.456,43.730 353.200,43.400 353.200 C 43.069 353.200,42.800 352.846,42.800 352.411 C 42.800 351.976,41.990 350.811,41.000 349.821 C 40.010 348.831,39.200 347.836,39.200 347.611 C 39.200 347.385,38.930 347.200,38.600 347.200 C 38.200 347.200,38.000 346.800,38.000 346.000 C 38.000 345.200,37.800 344.800,37.400 344.800 C 37.027 344.800,36.800 344.422,36.800 343.800 C 36.800 343.178,36.573 342.800,36.200 342.800 C 35.825 342.800,35.600 342.421,35.600 341.787 C 35.600 341.231,35.330 340.671,35.000 340.545 C 34.656 340.413,34.400 339.815,34.400 339.145 C 34.400 338.474,34.144 337.877,33.800 337.745 C 33.458 337.613,33.200 337.017,33.200 336.357 C 33.200 335.595,32.995 335.200,32.600 335.200 C 32.139 335.200,32.000 334.687,32.000 332.987 C 32.000 331.390,31.833 330.711,31.400 330.545 C 30.961 330.376,30.800 329.684,30.800 327.957 C 30.800 326.129,30.665 325.600,30.200 325.600 C 29.697 325.600,29.600 324.754,29.600 320.387 C 29.600 316.123,29.491 315.133,29.000 314.945 C 28.188 314.633,28.188 311.355,29.000 310.543 C 29.475 310.067,29.600 308.795,29.600 304.414 C 29.600 299.869,29.707 298.845,30.200 298.655 C 30.634 298.489,30.800 297.809,30.800 296.200 C 30.800 294.552,30.962 293.913,31.425 293.735 C 31.799 293.591,32.022 293.076,31.982 292.448 C 31.838 290.199,32.013 289.200,32.550 289.200 C 32.872 289.200,33.100 288.780,33.100 288.187 C 33.100 287.629,33.392 286.850,33.750 286.455 C 34.107 286.060,34.400 285.166,34.400 284.469 C 34.400 283.608,34.593 283.200,35.000 283.200 C 35.400 283.200,35.600 282.800,35.600 282.000 C 35.600 281.200,35.800 280.800,36.200 280.800 C 36.530 280.800,36.800 280.459,36.800 280.043 C 36.800 279.626,37.070 279.182,37.400 279.055 C 37.730 278.929,38.000 278.459,38.000 278.013 C 38.000 277.557,38.264 277.200,38.600 277.200 C 38.930 277.200,39.200 276.859,39.200 276.443 C 39.200 276.026,39.470 275.582,39.800 275.455 C 40.130 275.329,40.400 274.859,40.400 274.413 C 40.400 273.957,40.664 273.600,41.000 273.600 C 41.330 273.600,41.600 273.330,41.600 273.000 C 41.600 272.670,41.870 272.400,42.200 272.400 C 42.530 272.400,42.800 272.130,42.800 271.800 C 42.800 271.470,43.070 271.200,43.400 271.200 C 43.730 271.200,44.000 270.930,44.000 270.600 C 44.000 270.270,44.270 270.000,44.600 270.000 C 44.930 270.000,45.200 269.730,45.200 269.400 C 45.200 269.070,45.470 268.800,45.800 268.800 C 46.130 268.800,46.400 268.530,46.400 268.200 C 46.400 267.870,46.670 267.600,47.000 267.600 C 47.330 267.600,47.600 267.330,47.600 267.000 C 47.600 266.670,47.920 266.400,48.311 266.400 C 48.702 266.400,49.613 265.860,50.336 265.200 C 51.058 264.540,51.902 264.000,52.211 264.000 C 52.520 264.000,53.325 263.460,54.000 262.800 C 54.675 262.140,55.569 261.600,55.985 261.600 C 56.402 261.600,56.985 261.358,57.281 261.061 C 57.578 260.765,58.473 260.400,59.271 260.251 C 60.070 260.101,60.816 259.735,60.930 259.439 C 61.060 259.101,61.521 258.972,62.163 259.095 C 62.869 259.230,63.268 259.089,63.438 258.646 C 63.603 258.216,64.172 257.999,65.143 257.998 C 65.944 257.996,67.116 257.726,67.746 257.398 C 68.379 257.067,69.932 256.800,71.217 256.800 C 72.751 256.800,73.747 256.596,74.143 256.200 C 74.636 255.706,76.171 255.600,82.800 255.600 C 89.429 255.600,90.964 255.706,91.457 256.200 C 91.875 256.618,92.898 256.800,94.829 256.800 C 96.353 256.800,97.600 256.969,97.600 257.175 C 97.600 257.382,98.455 257.667,99.500 257.809 C 100.545 257.951,101.967 258.322,102.660 258.634 C 103.354 258.945,104.389 259.200,104.960 259.200 C 105.532 259.200,106.000 259.378,106.000 259.595 C 106.000 259.813,106.735 260.108,107.634 260.252 C 108.533 260.396,109.362 260.758,109.477 261.057 C 109.758 261.789,111.168 261.749,111.455 261.000 C 111.582 260.670,111.936 260.400,112.243 260.400 C 112.635 260.400,112.800 259.878,112.800 258.643 C 112.800 257.450,112.993 256.812,113.400 256.655 C 113.801 256.502,114.000 255.871,114.000 254.757 C 114.000 253.698,114.231 252.919,114.632 252.626 C 115.003 252.355,115.340 251.349,115.449 250.189 C 115.556 249.035,115.876 248.077,116.217 247.887 C 117.665 247.076,116.774 243.655,115.078 243.515 C 114.485 243.466,114.000 243.195,114.000 242.913 C 114.000 242.631,113.505 242.373,112.900 242.341 C 112.295 242.308,111.440 242.263,111.000 242.241 C 110.560 242.218,110.239 241.993,110.287 241.740 C 110.389 241.197,109.085 240.863,107.400 240.999 C 106.740 241.052,105.887 240.823,105.504 240.489 C 105.090 240.129,103.803 239.830,102.334 239.752 C 100.888 239.676,99.729 239.409,99.545 239.111 C 99.000 238.228,68.108 238.265,67.351 239.149 M127.300 241.074 C 126.248 241.286,125.978 243.200,127.000 243.200 C 127.467 243.200,127.600 243.733,127.600 245.600 C 127.600 247.467,127.733 248.000,128.200 248.000 C 128.730 248.000,129.120 250.556,128.832 252.145 C 128.798 252.335,129.044 252.695,129.379 252.945 C 129.768 253.236,130.012 254.150,130.057 255.481 C 130.100 256.802,130.322 257.638,130.663 257.769 C 131.023 257.907,131.200 258.707,131.200 260.200 C 131.200 261.809,131.366 262.489,131.800 262.655 C 132.229 262.820,132.400 263.490,132.400 265.000 C 132.400 266.510,132.571 267.180,133.000 267.345 C 133.434 267.511,133.600 268.191,133.600 269.800 C 133.600 271.409,133.766 272.089,134.200 272.255 C 134.631 272.421,134.800 273.096,134.800 274.655 C 134.800 276.215,134.969 276.890,135.400 277.055 C 135.819 277.216,136.000 277.869,136.000 279.214 C 136.000 280.395,136.233 281.375,136.600 281.743 C 136.972 282.115,137.200 283.097,137.200 284.329 C 137.200 285.725,137.378 286.383,137.800 286.545 C 138.231 286.710,138.400 287.385,138.400 288.945 C 138.400 290.504,138.569 291.179,139.000 291.345 C 139.409 291.502,139.600 292.142,139.600 293.355 C 139.600 295.402,139.926 296.493,140.442 296.174 C 140.639 296.052,140.800 296.863,140.800 297.976 C 140.800 299.508,140.946 300.000,141.400 300.000 C 141.867 300.000,142.000 300.533,142.000 302.400 C 142.000 304.267,142.133 304.800,142.600 304.800 C 143.061 304.800,143.200 305.313,143.200 307.013 C 143.200 308.610,143.367 309.289,143.800 309.455 C 144.238 309.623,144.400 310.312,144.400 312.000 C 144.400 313.688,144.562 314.377,145.000 314.545 C 145.433 314.711,145.600 315.390,145.600 316.987 C 145.600 318.687,145.739 319.200,146.200 319.200 C 146.665 319.200,146.800 319.729,146.800 321.557 C 146.800 323.284,146.961 323.976,147.400 324.145 C 147.834 324.311,148.000 324.991,148.000 326.600 C 148.000 328.209,148.166 328.889,148.600 329.055 C 149.019 329.216,149.200 329.869,149.200 331.214 C 149.200 332.364,149.434 333.377,149.779 333.722 C 150.097 334.040,150.402 335.155,150.456 336.199 C 150.510 337.243,150.774 338.317,151.042 338.585 C 151.310 338.853,151.578 339.866,151.638 340.836 C 151.772 343.029,151.960 343.600,152.546 343.600 C 152.846 343.600,152.956 344.231,152.861 345.422 C 152.763 346.652,152.912 347.464,153.320 347.922 C 153.652 348.295,154.018 349.571,154.133 350.758 C 154.247 351.945,154.539 353.038,154.780 353.187 C 155.021 353.336,155.275 354.407,155.344 355.566 C 155.414 356.724,155.654 357.791,155.879 357.936 C 156.105 358.081,156.381 359.182,156.494 360.383 C 156.606 361.584,156.901 362.634,157.149 362.716 C 157.397 362.799,157.600 363.577,157.600 364.446 C 157.600 365.481,157.807 366.104,158.200 366.255 C 158.639 366.424,158.800 367.116,158.800 368.843 C 158.800 370.671,158.935 371.200,159.400 371.200 C 160.006 371.200,160.142 371.880,160.012 374.271 C 159.965 375.148,160.174 375.665,160.687 375.939 C 161.273 376.253,161.418 376.763,161.375 378.361 C 161.335 379.871,161.509 380.556,162.061 381.055 C 162.467 381.423,162.800 382.056,162.800 382.462 C 162.800 382.933,163.089 383.200,163.600 383.200 C 164.040 383.200,164.400 383.020,164.400 382.800 C 164.400 382.545,167.789 382.400,173.767 382.400 C 184.620 382.400,184.400 382.442,184.400 380.345 C 184.400 379.318,184.608 378.695,185.000 378.545 C 185.431 378.379,185.600 377.704,185.600 376.145 C 185.600 374.585,185.769 373.910,186.200 373.745 C 186.594 373.594,186.800 372.969,186.800 371.929 C 186.800 371.056,187.040 370.103,187.334 369.809 C 187.627 369.516,187.900 368.409,187.940 367.350 C 187.987 366.125,188.229 365.304,188.607 365.092 C 189.018 364.862,189.200 364.091,189.200 362.580 C 189.200 360.909,189.340 360.400,189.800 360.400 C 190.242 360.400,190.400 359.938,190.400 358.643 C 190.400 357.559,190.602 356.808,190.927 356.683 C 191.253 356.558,191.491 355.666,191.551 354.343 C 191.613 352.981,191.858 352.088,192.224 351.882 C 192.570 351.689,192.800 350.944,192.800 350.013 C 192.800 349.163,192.989 348.404,193.220 348.327 C 193.451 348.250,193.744 347.200,193.871 345.993 C 193.999 344.772,194.345 343.658,194.651 343.480 C 195.011 343.270,195.200 342.405,195.200 340.968 C 195.200 339.388,195.368 338.711,195.800 338.545 C 196.194 338.394,196.400 337.769,196.400 336.729 C 196.400 335.852,196.668 334.874,197.000 334.543 C 197.354 334.189,197.600 333.211,197.600 332.159 C 197.600 330.942,197.791 330.302,198.200 330.145 C 198.631 329.979,198.800 329.304,198.800 327.745 C 198.800 326.185,198.969 325.510,199.400 325.345 C 199.794 325.194,200.000 324.569,200.000 323.529 C 200.000 322.656,200.249 321.694,200.553 321.390 C 200.857 321.086,201.116 320.070,201.129 319.131 C 201.143 318.069,201.388 317.252,201.776 316.968 C 202.198 316.659,202.400 315.861,202.400 314.499 C 202.400 313.078,202.577 312.418,203.000 312.255 C 203.411 312.098,203.600 311.455,203.600 310.213 C 203.600 308.845,203.752 308.400,204.218 308.400 C 204.557 308.400,204.806 308.175,204.770 307.900 C 204.514 305.924,204.854 303.600,205.400 303.600 C 205.845 303.600,206.000 303.132,206.000 301.787 C 206.000 300.545,206.189 299.902,206.600 299.745 C 207.029 299.580,207.200 298.910,207.200 297.400 C 207.200 295.890,207.371 295.220,207.800 295.055 C 208.231 294.890,208.400 294.215,208.400 292.655 C 208.400 291.096,208.569 290.421,209.000 290.255 C 209.431 290.090,209.600 289.416,209.600 287.862 C 209.600 286.387,209.799 285.533,210.226 285.179 C 210.630 284.843,210.829 284.083,210.789 283.030 C 210.681 280.238,210.782 279.600,211.334 279.600 C 211.714 279.600,211.895 278.874,211.959 277.102 C 212.020 275.420,212.237 274.499,212.624 274.282 C 212.941 274.105,213.200 273.504,213.200 272.947 C 213.200 270.144,214.216 272.536,214.414 275.803 C 214.550 278.059,214.804 279.401,215.114 279.505 C 215.433 279.611,215.600 280.620,215.600 282.446 C 215.600 284.547,215.746 285.281,216.200 285.455 C 216.646 285.626,216.800 286.336,216.800 288.214 C 216.800 289.889,216.996 290.939,217.380 291.323 C 217.699 291.641,218.085 292.869,218.239 294.051 C 218.392 295.233,218.695 296.315,218.912 296.456 C 219.129 296.598,219.337 297.915,219.375 299.384 C 219.418 301.078,219.633 302.173,219.962 302.377 C 220.248 302.553,220.572 303.665,220.682 304.849 C 220.793 306.032,221.082 307.124,221.324 307.275 C 221.567 307.426,221.797 308.487,221.835 309.632 C 221.881 310.993,222.110 311.830,222.495 312.045 C 222.907 312.276,223.054 312.931,222.984 314.230 C 222.909 315.636,223.076 316.276,223.677 316.877 C 224.224 317.424,224.394 317.968,224.227 318.635 C 223.912 319.892,224.349 321.600,224.987 321.600 C 225.323 321.600,225.450 322.124,225.374 323.195 C 225.312 324.072,225.430 324.895,225.637 325.023 C 225.844 325.151,225.905 325.431,225.772 325.645 C 225.640 325.860,225.764 326.315,226.048 326.657 C 226.531 327.240,226.618 327.714,226.748 330.500 C 226.781 331.188,227.025 331.600,227.400 331.600 C 227.867 331.600,228.000 332.133,228.000 334.000 C 228.000 335.867,228.133 336.400,228.600 336.400 C 229.076 336.400,229.200 336.979,229.200 339.213 C 229.200 341.344,229.345 342.081,229.800 342.255 C 230.231 342.421,230.400 343.096,230.400 344.655 C 230.400 346.215,230.569 346.890,231.000 347.055 C 231.439 347.224,231.600 347.916,231.600 349.643 C 231.600 351.471,231.735 352.000,232.200 352.000 C 232.667 352.000,232.800 352.533,232.800 354.400 C 232.800 356.267,232.933 356.800,233.400 356.800 C 233.867 356.800,234.000 357.333,234.000 359.200 C 234.000 361.067,234.133 361.600,234.600 361.600 C 235.067 361.600,235.200 362.133,235.200 364.000 C 235.200 365.867,235.333 366.400,235.800 366.400 C 236.267 366.400,236.400 366.933,236.400 368.800 C 236.400 370.667,236.533 371.200,237.000 371.200 C 237.467 371.200,237.600 371.735,237.600 373.613 C 237.600 375.388,237.758 376.086,238.200 376.255 C 238.633 376.421,238.800 377.099,238.800 378.686 C 238.800 380.602,238.889 380.852,239.488 380.622 C 239.866 380.476,240.052 380.481,239.902 380.631 C 238.396 382.137,257.487 383.493,261.034 382.132 C 261.403 381.990,261.600 381.303,261.600 380.157 C 261.600 378.862,261.758 378.400,262.200 378.400 C 262.659 378.400,262.800 377.894,262.800 376.243 C 262.800 374.694,262.969 374.021,263.400 373.855 C 263.811 373.698,264.000 373.055,264.000 371.813 C 264.000 370.468,264.155 370.000,264.600 370.000 C 265.067 370.000,265.200 369.467,265.200 367.600 C 265.200 365.733,265.333 365.200,265.800 365.200 C 266.242 365.200,266.400 364.738,266.400 363.443 C 266.400 362.212,266.589 361.613,267.031 361.444 C 267.469 361.275,267.640 360.745,267.592 359.701 C 267.478 357.240,267.570 356.800,268.200 356.800 C 268.642 356.800,268.800 356.338,268.800 355.043 C 268.800 353.812,268.989 353.213,269.431 353.044 C 269.869 352.875,270.040 352.345,269.992 351.301 C 269.878 348.840,269.970 348.400,270.600 348.400 C 271.043 348.400,271.200 347.937,271.200 346.633 C 271.200 345.656,271.406 344.798,271.660 344.713 C 271.914 344.629,272.206 343.534,272.310 342.280 C 272.441 340.703,272.669 340.000,273.050 340.000 C 273.443 340.000,273.600 339.431,273.600 338.000 C 273.600 336.489,273.747 336.000,274.200 336.000 C 274.530 336.000,274.779 335.865,274.753 335.700 C 274.492 334.049,274.879 331.600,275.400 331.600 C 275.843 331.600,276.000 331.136,276.000 329.824 C 276.000 328.847,276.183 327.934,276.407 327.796 C 276.630 327.658,276.709 327.377,276.583 327.172 C 276.456 326.968,276.543 326.800,276.776 326.800 C 277.010 326.800,277.200 326.013,277.200 325.043 C 277.200 323.850,277.393 323.212,277.800 323.055 C 278.198 322.902,278.400 322.274,278.400 321.184 C 278.400 320.259,278.662 319.281,279.000 318.943 C 279.348 318.595,279.600 317.617,279.600 316.614 C 279.600 315.477,279.797 314.810,280.177 314.664 C 280.542 314.524,280.800 313.737,280.877 312.521 C 280.959 311.247,281.168 310.634,281.500 310.700 C 281.856 310.771,282.000 310.107,282.000 308.400 C 282.000 306.624,282.144 306.000,282.553 306.000 C 282.931 306.000,283.113 305.473,283.129 304.329 C 283.144 303.250,283.373 302.535,283.776 302.310 C 284.222 302.060,284.400 301.340,284.400 299.780 C 284.400 298.070,284.535 297.600,285.025 297.600 C 285.387 297.600,285.614 297.305,285.564 296.900 C 285.467 296.115,285.785 295.117,286.643 293.519 C 286.982 292.888,287.168 291.697,287.090 290.661 C 286.994 289.394,287.095 288.938,287.440 289.071 C 287.956 289.269,288.623 287.085,288.238 286.461 C 288.116 286.264,288.377 285.688,288.817 285.181 C 289.436 284.466,289.583 283.830,289.468 282.364 C 289.354 280.924,289.444 280.519,289.843 280.672 C 290.436 280.900,291.019 279.147,290.660 278.212 C 290.536 277.888,290.705 277.352,291.037 277.020 C 291.369 276.688,291.743 275.582,291.868 274.563 C 291.993 273.543,292.342 272.234,292.645 271.654 C 292.947 271.074,293.196 270.002,293.198 269.271 C 293.199 268.541,293.470 267.673,293.800 267.343 C 294.130 267.013,294.406 266.171,294.413 265.471 C 294.420 264.772,294.690 263.851,295.013 263.424 C 295.336 262.996,295.600 261.866,295.600 260.911 C 295.600 259.737,295.794 259.100,296.200 258.945 C 296.604 258.790,296.800 258.155,296.800 257.000 C 296.800 255.957,297.005 255.207,297.323 255.085 C 297.633 254.966,297.887 254.093,297.947 252.945 C 298.009 251.735,298.269 250.881,298.638 250.675 C 299.032 250.454,299.198 249.819,299.136 248.773 C 299.070 247.651,299.247 247.053,299.758 246.680 C 300.344 246.252,300.448 245.695,300.336 243.579 L 300.200 241.000 290.100 240.929 C 279.607 240.856,279.077 240.942,280.100 242.558 C 280.155 242.645,279.865 243.086,279.456 243.538 C 279.016 244.024,278.653 245.137,278.569 246.257 C 278.484 247.395,278.190 248.286,277.834 248.485 C 277.453 248.698,277.294 249.245,277.391 250.009 C 277.482 250.731,277.295 251.448,276.916 251.827 C 276.560 252.183,276.242 253.302,276.178 254.422 C 276.117 255.505,275.811 256.646,275.499 256.958 C 275.188 257.269,274.901 258.366,274.862 259.395 C 274.823 260.432,274.525 261.532,274.196 261.862 C 273.845 262.213,273.600 263.196,273.600 264.257 C 273.600 265.324,273.356 266.302,273.000 266.657 C 272.633 267.025,272.400 268.005,272.400 269.186 C 272.400 270.549,272.220 271.183,271.787 271.350 C 271.373 271.509,271.204 272.030,271.266 272.956 C 271.317 273.710,271.135 274.596,270.863 274.924 C 270.590 275.253,270.267 276.394,270.145 277.461 C 270.024 278.527,269.671 279.600,269.362 279.844 C 268.998 280.132,268.800 281.084,268.800 282.544 C 268.800 284.135,268.653 284.771,268.300 284.700 C 267.960 284.632,267.760 285.303,267.676 286.798 C 267.597 288.188,267.340 289.114,266.976 289.318 C 266.584 289.537,266.400 290.340,266.400 291.832 C 266.400 293.412,266.232 294.089,265.800 294.255 C 265.406 294.406,265.200 295.031,265.200 296.071 C 265.200 296.948,264.932 297.926,264.600 298.257 C 264.233 298.625,264.000 299.605,264.000 300.786 C 264.000 302.131,263.819 302.784,263.400 302.945 C 262.969 303.110,262.800 303.785,262.800 305.345 C 262.800 306.904,262.631 307.579,262.200 307.745 C 261.769 307.910,261.600 308.585,261.600 310.145 C 261.600 311.704,261.431 312.379,261.000 312.545 C 260.569 312.710,260.400 313.385,260.400 314.945 C 260.400 316.504,260.231 317.179,259.800 317.345 C 259.369 317.510,259.200 318.185,259.200 319.745 C 259.200 321.304,259.031 321.979,258.600 322.145 C 258.169 322.310,258.000 322.985,258.000 324.545 C 258.000 326.104,257.831 326.779,257.400 326.945 C 256.969 327.110,256.800 327.785,256.800 329.345 C 256.800 330.904,256.631 331.579,256.200 331.745 C 255.769 331.910,255.600 332.585,255.600 334.145 C 255.600 335.704,255.431 336.379,255.000 336.545 C 254.560 336.713,254.400 337.407,254.400 339.145 C 254.400 340.882,254.240 341.576,253.800 341.745 C 253.351 341.917,253.200 342.636,253.200 344.600 C 253.200 346.408,253.035 347.288,252.671 347.428 C 252.344 347.554,252.107 348.427,252.050 349.716 C 251.917 352.732,250.800 353.766,250.800 350.873 C 250.800 349.377,250.628 348.709,250.200 348.545 C 249.737 348.367,249.600 347.593,249.600 345.145 C 249.600 342.696,249.463 341.923,249.000 341.745 C 248.548 341.571,248.400 340.844,248.400 338.806 C 248.400 336.887,248.225 335.953,247.800 335.600 C 247.404 335.271,247.200 334.377,247.200 332.971 C 247.200 331.581,247.008 330.729,246.648 330.520 C 246.293 330.314,246.035 329.211,245.925 327.425 C 245.822 325.774,245.560 324.587,245.276 324.492 C 244.995 324.398,244.800 323.539,244.800 322.395 C 244.800 321.206,244.568 320.225,244.200 319.857 C 243.823 319.481,243.600 318.497,243.600 317.216 C 243.600 315.771,243.425 315.108,243.000 314.945 C 242.569 314.779,242.400 314.104,242.400 312.545 C 242.400 310.985,242.231 310.310,241.800 310.145 C 241.354 309.974,241.200 309.264,241.200 307.386 C 241.200 305.671,241.007 304.664,240.600 304.257 C 240.244 303.902,240.000 302.924,240.000 301.857 C 240.000 300.840,239.754 299.811,239.435 299.492 C 239.125 299.182,238.827 298.134,238.773 297.164 C 238.719 296.194,238.460 295.040,238.197 294.600 C 237.933 294.160,237.626 292.836,237.513 291.657 C 237.401 290.479,237.108 289.390,236.862 289.239 C 236.617 289.087,236.332 287.984,236.230 286.789 C 236.129 285.593,235.855 284.552,235.623 284.474 C 235.390 284.397,235.200 283.461,235.200 282.395 C 235.200 281.218,234.968 280.225,234.609 279.866 C 234.266 279.523,233.987 278.412,233.945 277.221 C 233.898 275.914,233.663 275.051,233.297 274.846 C 232.913 274.632,232.727 273.861,232.738 272.528 C 232.746 271.430,232.473 270.007,232.131 269.366 C 231.790 268.725,231.476 267.333,231.435 266.273 C 231.394 265.214,231.136 264.208,230.861 264.038 C 230.587 263.868,230.300 262.778,230.224 261.615 C 230.149 260.452,229.874 259.369,229.613 259.208 C 229.353 259.047,229.084 258.124,229.016 257.158 C 228.948 256.191,228.872 255.175,228.846 254.900 C 228.821 254.625,228.530 254.400,228.200 254.400 C 227.635 254.400,227.352 252.534,227.579 250.300 C 227.620 249.902,227.381 249.600,227.025 249.600 C 226.528 249.600,226.400 249.110,226.400 247.200 C 226.400 245.333,226.267 244.800,225.800 244.800 C 225.348 244.800,225.200 244.314,225.200 242.823 L 225.200 240.846 214.500 240.923 L 203.800 241.000 203.671 242.124 C 203.600 242.742,203.285 243.346,202.971 243.466 C 202.609 243.605,202.400 244.266,202.400 245.271 C 202.400 246.148,202.132 247.126,201.800 247.457 C 201.433 247.825,201.200 248.805,201.200 249.986 C 201.200 251.331,201.019 251.984,200.600 252.145 C 200.169 252.310,200.000 252.985,200.000 254.545 C 200.000 256.104,199.831 256.779,199.400 256.945 C 198.967 257.111,198.800 257.790,198.800 259.387 C 198.800 261.087,198.661 261.600,198.200 261.600 C 197.765 261.600,197.600 262.048,197.600 263.229 C 197.600 264.143,197.337 265.120,197.000 265.457 C 196.644 265.813,196.400 266.790,196.400 267.857 C 196.400 268.924,196.156 269.902,195.800 270.257 C 195.429 270.628,195.200 271.610,195.200 272.829 C 195.200 274.314,195.052 274.800,194.600 274.800 C 194.135 274.800,194.000 275.329,194.000 277.157 C 194.000 278.884,193.839 279.576,193.400 279.745 C 192.992 279.901,192.800 280.541,192.800 281.745 C 192.800 282.949,192.608 283.588,192.200 283.745 C 191.767 283.911,191.600 284.590,191.600 286.187 C 191.600 287.744,191.452 288.370,191.100 288.300 C 190.760 288.232,190.560 288.903,190.476 290.398 C 190.397 291.788,190.140 292.714,189.776 292.918 C 189.387 293.135,189.200 293.933,189.200 295.377 C 189.200 296.908,189.030 297.580,188.600 297.745 C 188.188 297.903,188.000 298.547,188.000 299.800 C 188.000 301.053,187.812 301.697,187.400 301.855 C 186.969 302.021,186.800 302.694,186.800 304.243 C 186.800 305.894,186.659 306.400,186.200 306.400 C 185.733 306.400,185.600 306.933,185.600 308.800 C 185.600 310.667,185.467 311.200,185.000 311.200 C 184.533 311.200,184.400 311.733,184.400 313.600 C 184.400 315.467,184.267 316.000,183.800 316.000 C 183.358 316.000,183.200 316.462,183.200 317.757 C 183.200 318.950,183.007 319.588,182.600 319.745 C 182.169 319.910,182.000 320.585,182.000 322.145 C 182.000 323.704,181.831 324.379,181.400 324.545 C 180.969 324.710,180.800 325.385,180.800 326.945 C 180.800 328.504,180.631 329.179,180.200 329.345 C 179.767 329.511,179.600 330.190,179.600 331.787 C 179.600 333.487,179.461 334.000,179.000 334.000 C 178.533 334.000,178.400 334.535,178.400 336.413 C 178.400 338.188,178.242 338.886,177.800 339.055 C 177.347 339.229,177.200 339.961,177.200 342.043 C 177.200 344.227,177.075 344.800,176.600 344.800 C 176.135 344.800,176.000 345.329,176.000 347.157 C 176.000 348.884,175.839 349.576,175.400 349.745 C 174.993 349.901,174.785 350.589,174.754 351.887 C 174.728 352.939,174.625 353.485,174.524 353.100 C 174.424 352.715,174.175 352.400,173.971 352.400 C 173.767 352.400,173.599 351.365,173.598 350.100 C 173.596 348.835,173.326 347.284,172.998 346.654 C 172.669 346.024,172.400 344.824,172.400 343.987 C 172.400 342.077,172.072 341.200,171.357 341.200 C 170.930 341.200,170.800 340.498,170.800 338.200 C 170.800 335.800,170.680 335.200,170.200 335.200 C 169.724 335.200,169.600 334.621,169.600 332.387 C 169.600 330.256,169.455 329.519,169.000 329.345 C 168.561 329.176,168.400 328.484,168.400 326.757 C 168.400 324.929,168.265 324.400,167.800 324.400 C 167.333 324.400,167.200 323.867,167.200 322.000 C 167.200 320.133,167.067 319.600,166.600 319.600 C 166.120 319.600,166.000 319.000,166.000 316.600 C 166.000 314.200,165.880 313.600,165.400 313.600 C 164.933 313.600,164.800 313.067,164.800 311.200 C 164.800 309.333,164.667 308.800,164.200 308.800 C 163.735 308.800,163.600 308.271,163.600 306.443 C 163.600 304.716,163.439 304.024,163.000 303.855 C 162.569 303.690,162.400 303.015,162.400 301.455 C 162.400 299.896,162.231 299.221,161.800 299.055 C 161.345 298.881,161.200 298.144,161.200 296.013 C 161.200 293.779,161.076 293.200,160.600 293.200 C 160.133 293.200,160.000 292.665,160.000 290.787 C 160.000 289.012,159.842 288.314,159.400 288.145 C 158.961 287.976,158.800 287.284,158.800 285.557 C 158.800 283.729,158.665 283.200,158.200 283.200 C 157.733 283.200,157.600 282.667,157.600 280.800 C 157.600 278.933,157.467 278.400,157.000 278.400 C 156.479 278.400,156.057 274.914,156.356 273.089 C 156.384 272.918,156.136 272.673,155.804 272.546 C 155.360 272.376,155.200 271.690,155.200 269.957 C 155.200 268.129,155.065 267.600,154.600 267.600 C 154.133 267.600,154.000 267.067,154.000 265.200 C 154.000 263.333,153.867 262.800,153.400 262.800 C 152.933 262.800,152.800 262.267,152.800 260.400 C 152.800 258.533,152.667 258.000,152.200 258.000 C 151.679 258.000,151.257 254.514,151.556 252.689 C 151.584 252.518,151.336 252.273,151.004 252.146 C 150.560 251.976,150.400 251.290,150.400 249.557 C 150.400 247.729,150.265 247.200,149.800 247.200 C 149.333 247.200,149.200 246.667,149.200 244.800 C 149.200 242.933,149.067 242.400,148.600 242.400 C 148.069 242.400,147.833 241.947,147.940 241.138 C 147.979 240.846,128.723 240.787,127.300 241.074 M316.099 311.527 L 316.200 382.200 355.900 382.302 L 395.600 382.404 395.600 373.902 L 395.600 365.400 365.400 365.511 L 335.200 365.623 335.200 303.222 L 335.200 240.821 325.599 240.838 L 315.998 240.855 316.099 311.527 " stroke="none" fill="#bc1c2c" fill-rule="evenodd"></path><path id="path1" d="M316.000 100.800 L 316.000 175.600 326.200 175.600 L 336.400 175.600 336.400 100.800 L 336.400 26.000 326.200 26.000 L 316.000 26.000 316.000 100.800 M47.600 42.800 L 47.600 51.200 69.400 51.200 L 91.200 51.200 91.200 113.400 L 91.200 175.600 101.400 175.600 L 111.600 175.600 111.600 113.400 L 111.600 51.200 132.800 51.200 L 154.000 51.200 154.000 42.800 L 154.000 34.400 100.800 34.400 L 47.600 34.400 47.600 42.800 M271.200 35.000 C 271.200 35.400,270.800 35.600,270.000 35.600 C 269.200 35.600,268.800 35.800,268.800 36.200 C 268.800 36.530,268.530 36.800,268.200 36.800 C 267.870 36.800,267.600 37.070,267.600 37.400 C 267.600 37.730,267.330 38.000,267.000 38.000 C 266.600 38.000,266.400 38.400,266.400 39.200 C 266.400 40.000,266.200 40.400,265.800 40.400 C 265.293 40.400,265.200 41.333,265.200 46.400 C 265.200 51.467,265.293 52.400,265.800 52.400 C 266.200 52.400,266.400 52.800,266.400 53.600 C 266.400 54.400,266.600 54.800,267.000 54.800 C 267.330 54.800,267.600 55.070,267.600 55.400 C 267.600 55.730,267.870 56.000,268.200 56.000 C 268.530 56.000,268.800 56.270,268.800 56.600 C 268.800 57.000,269.200 57.200,270.000 57.200 C 270.800 57.200,271.200 57.400,271.200 57.800 C 271.200 58.307,272.133 58.400,277.200 58.400 C 282.267 58.400,283.200 58.307,283.200 57.800 C 283.200 57.424,283.580 57.200,284.216 57.200 C 285.415 57.200,288.400 54.365,288.400 53.227 C 288.400 52.819,288.670 52.382,289.000 52.255 C 289.492 52.066,289.600 51.058,289.600 46.641 C 289.600 42.389,289.474 41.131,289.000 40.657 C 288.670 40.327,288.400 39.789,288.400 39.462 C 288.400 38.368,285.445 35.600,284.277 35.600 C 283.586 35.600,283.200 35.385,283.200 35.000 C 283.200 34.493,282.267 34.400,277.200 34.400 C 272.133 34.400,271.200 34.493,271.200 35.000 M194.000 70.200 C 194.000 70.700,193.200 70.800,189.200 70.800 C 185.200 70.800,184.400 70.900,184.400 71.400 C 184.400 71.867,183.867 72.000,182.000 72.000 C 180.133 72.000,179.600 72.133,179.600 72.600 C 179.600 73.044,179.133 73.200,177.800 73.200 C 176.467 73.200,176.000 73.356,176.000 73.800 C 176.000 74.200,175.600 74.400,174.800 74.400 C 174.000 74.400,173.600 74.600,173.600 75.000 C 173.600 75.400,173.200 75.600,172.400 75.600 C 171.600 75.600,171.200 75.800,171.200 76.200 C 171.200 76.600,170.800 76.800,170.000 76.800 C 169.200 76.800,168.800 77.000,168.800 77.400 C 168.800 77.730,168.524 78.000,168.187 78.000 C 167.851 78.000,167.471 78.270,167.345 78.600 C 167.218 78.930,166.768 79.200,166.344 79.200 C 165.920 79.200,165.045 79.740,164.400 80.400 C 163.755 81.060,163.041 81.600,162.813 81.600 C 162.586 81.600,162.400 81.870,162.400 82.200 C 162.400 82.530,162.130 82.800,161.800 82.800 C 161.470 82.800,161.200 83.070,161.200 83.400 C 161.200 83.730,160.930 84.000,160.600 84.000 C 160.270 84.000,160.000 84.270,160.000 84.600 C 160.000 84.930,159.730 85.200,159.400 85.200 C 159.070 85.200,158.800 85.470,158.800 85.800 C 158.800 86.130,158.530 86.400,158.200 86.400 C 157.870 86.400,157.600 86.651,157.600 86.957 C 157.600 87.264,157.330 87.618,157.000 87.745 C 156.670 87.871,156.400 88.431,156.400 88.987 C 156.400 89.621,156.175 90.000,155.800 90.000 C 155.470 90.000,155.200 90.270,155.200 90.600 C 155.200 90.930,154.930 91.200,154.600 91.200 C 154.200 91.200,154.000 91.600,154.000 92.400 C 154.000 93.200,153.800 93.600,153.400 93.600 C 153.000 93.600,152.800 94.000,152.800 94.800 C 152.800 95.600,152.600 96.000,152.200 96.000 C 151.800 96.000,151.600 96.400,151.600 97.200 C 151.600 98.000,151.400 98.400,151.000 98.400 C 150.600 98.400,150.400 98.800,150.400 99.600 C 150.400 100.400,150.200 100.800,149.800 100.800 C 149.358 100.800,149.200 101.262,149.200 102.557 C 149.200 103.750,149.007 104.388,148.600 104.545 C 148.169 104.710,148.000 105.385,148.000 106.945 C 148.000 108.504,147.831 109.179,147.400 109.345 C 146.922 109.528,146.800 110.385,146.800 113.545 C 146.800 116.704,146.678 117.561,146.200 117.745 C 145.698 117.937,145.600 119.124,145.600 125.000 C 145.600 130.876,145.698 132.063,146.200 132.255 C 146.680 132.440,146.800 133.316,146.800 136.643 C 146.800 140.071,146.905 140.800,147.400 140.800 C 147.861 140.800,148.000 141.313,148.000 143.013 C 148.000 144.610,148.167 145.289,148.600 145.455 C 148.992 145.606,149.200 146.229,149.200 147.255 C 149.200 148.282,149.408 148.905,149.800 149.055 C 150.142 149.187,150.400 149.783,150.400 150.443 C 150.400 151.205,150.605 151.600,151.000 151.600 C 151.400 151.600,151.600 152.000,151.600 152.800 C 151.600 153.600,151.800 154.000,152.200 154.000 C 152.600 154.000,152.800 154.400,152.800 155.200 C 152.800 156.000,153.000 156.400,153.400 156.400 C 153.775 156.400,154.000 156.779,154.000 157.413 C 154.000 157.969,154.270 158.529,154.600 158.655 C 154.930 158.782,155.200 159.136,155.200 159.443 C 155.200 159.749,155.470 160.000,155.800 160.000 C 156.130 160.000,156.400 160.270,156.400 160.600 C 156.400 160.930,156.670 161.200,157.000 161.200 C 157.344 161.200,157.600 161.560,157.600 162.043 C 157.600 163.155,161.645 167.200,162.757 167.200 C 163.240 167.200,163.600 167.456,163.600 167.800 C 163.600 168.130,163.870 168.400,164.200 168.400 C 164.530 168.400,164.800 168.670,164.800 169.000 C 164.800 169.330,165.051 169.600,165.357 169.600 C 165.664 169.600,166.018 169.870,166.145 170.200 C 166.271 170.530,166.831 170.800,167.387 170.800 C 168.021 170.800,168.400 171.025,168.400 171.400 C 168.400 171.733,168.756 172.000,169.200 172.000 C 169.644 172.000,170.000 172.267,170.000 172.600 C 170.000 173.000,170.400 173.200,171.200 173.200 C 172.000 173.200,172.400 173.400,172.400 173.800 C 172.400 174.200,172.800 174.400,173.600 174.400 C 174.400 174.400,174.800 174.600,174.800 175.000 C 174.800 175.444,175.267 175.600,176.600 175.600 C 177.933 175.600,178.400 175.756,178.400 176.200 C 178.400 176.667,178.933 176.800,180.800 176.800 C 182.667 176.800,183.200 176.933,183.200 177.400 C 183.200 177.900,184.000 178.000,188.000 178.000 C 192.000 178.000,192.800 178.100,192.800 178.600 C 192.800 179.067,193.333 179.200,195.200 179.200 C 197.067 179.200,197.600 179.067,197.600 178.600 C 197.600 178.096,198.467 178.000,203.000 178.000 C 207.533 178.000,208.400 177.904,208.400 177.400 C 208.400 176.956,208.867 176.800,210.200 176.800 C 211.533 176.800,212.000 176.644,212.000 176.200 C 212.000 175.756,212.467 175.600,213.800 175.600 C 215.133 175.600,215.600 175.444,215.600 175.000 C 215.600 174.600,216.000 174.400,216.800 174.400 C 217.600 174.400,218.000 174.200,218.000 173.800 C 218.000 173.400,218.400 173.200,219.200 173.200 C 220.000 173.200,220.400 173.000,220.400 172.600 C 220.400 172.200,220.800 172.000,221.600 172.000 C 222.400 172.000,222.800 171.800,222.800 171.400 C 222.800 171.000,223.200 170.800,224.000 170.800 C 224.800 170.800,225.200 170.600,225.200 170.200 C 225.200 169.870,225.470 169.600,225.800 169.600 C 226.130 169.600,226.400 169.330,226.400 169.000 C 226.400 168.670,226.670 168.400,227.000 168.400 C 227.330 168.400,227.600 168.130,227.600 167.800 C 227.600 167.400,228.000 167.200,228.800 167.200 C 229.600 167.200,230.000 167.000,230.000 166.600 C 230.000 166.270,230.270 166.000,230.600 166.000 C 230.930 166.000,231.200 165.730,231.200 165.400 C 231.200 165.070,231.470 164.800,231.800 164.800 C 232.130 164.800,232.400 164.530,232.400 164.200 C 232.400 163.870,232.670 163.600,233.000 163.600 C 233.330 163.600,233.600 163.330,233.600 163.000 C 233.600 162.670,233.875 162.400,234.210 162.400 C 234.568 162.400,234.919 161.904,235.060 161.200 C 235.192 160.540,235.548 160.000,235.850 160.000 C 236.153 160.000,236.400 159.749,236.400 159.443 C 236.400 159.136,236.670 158.782,237.000 158.655 C 237.330 158.529,237.600 157.969,237.600 157.413 C 237.600 156.779,237.825 156.400,238.200 156.400 C 238.530 156.400,238.800 156.149,238.800 155.843 C 238.800 155.536,239.070 155.182,239.400 155.055 C 239.730 154.929,240.000 154.389,240.000 153.855 C 240.000 153.322,240.270 152.782,240.600 152.655 C 240.930 152.529,241.200 151.989,241.200 151.455 C 241.200 150.922,241.470 150.382,241.800 150.255 C 242.196 150.103,242.400 149.477,242.400 148.413 C 242.400 147.246,242.566 146.800,243.000 146.800 C 243.442 146.800,243.600 146.338,243.600 145.043 C 243.600 143.850,243.793 143.212,244.200 143.055 C 244.631 142.890,244.800 142.215,244.800 140.655 C 244.800 139.096,244.969 138.421,245.400 138.255 C 245.918 138.057,246.000 136.076,246.000 123.800 C 246.000 111.524,245.918 109.543,245.400 109.345 C 244.969 109.179,244.800 108.504,244.800 106.945 C 244.800 105.385,244.631 104.710,244.200 104.545 C 243.793 104.388,243.600 103.750,243.600 102.557 C 243.600 101.262,243.442 100.800,243.000 100.800 C 242.566 100.800,242.400 100.354,242.400 99.187 C 242.400 98.123,242.196 97.497,241.800 97.345 C 241.470 97.218,241.200 96.678,241.200 96.145 C 241.200 95.611,240.930 95.071,240.600 94.945 C 240.270 94.818,240.000 94.278,240.000 93.745 C 240.000 93.211,239.730 92.671,239.400 92.545 C 239.070 92.418,238.800 92.064,238.800 91.757 C 238.800 91.451,238.530 91.200,238.200 91.200 C 237.870 91.200,237.600 90.853,237.600 90.429 C 237.600 90.004,237.330 89.387,237.000 89.057 C 236.670 88.727,236.400 88.264,236.400 88.029 C 236.400 87.793,236.130 87.600,235.800 87.600 C 235.470 87.600,235.200 87.330,235.200 87.000 C 235.200 86.670,234.930 86.400,234.600 86.400 C 234.270 86.400,234.000 86.130,234.000 85.800 C 234.000 85.470,233.730 85.200,233.400 85.200 C 233.070 85.200,232.800 84.930,232.800 84.600 C 232.800 84.270,232.530 84.000,232.200 84.000 C 231.870 84.000,231.600 83.730,231.600 83.400 C 231.600 83.070,231.330 82.800,231.000 82.800 C 230.670 82.800,230.400 82.530,230.400 82.200 C 230.400 81.870,230.130 81.600,229.800 81.600 C 229.470 81.600,229.200 81.330,229.200 81.000 C 229.200 80.667,228.844 80.400,228.400 80.400 C 227.956 80.400,227.600 80.133,227.600 79.800 C 227.600 79.470,227.330 79.200,227.000 79.200 C 226.670 79.200,226.400 78.930,226.400 78.600 C 226.400 78.200,226.000 78.000,225.200 78.000 C 224.400 78.000,224.000 77.800,224.000 77.400 C 224.000 77.070,223.730 76.800,223.400 76.800 C 223.070 76.800,222.800 76.530,222.800 76.200 C 222.800 75.800,222.400 75.600,221.600 75.600 C 220.800 75.600,220.400 75.400,220.400 75.000 C 220.400 74.556,219.933 74.400,218.600 74.400 C 217.267 74.400,216.800 74.244,216.800 73.800 C 216.800 73.400,216.400 73.200,215.600 73.200 C 214.800 73.200,214.400 73.000,214.400 72.600 C 214.400 72.133,213.867 72.000,212.000 72.000 C 210.133 72.000,209.600 71.867,209.600 71.400 C 209.600 70.900,208.800 70.800,204.800 70.800 C 200.800 70.800,200.000 70.700,200.000 70.200 C 200.000 69.720,199.400 69.600,197.000 69.600 C 194.600 69.600,194.000 69.720,194.000 70.200 M266.400 124.400 L 266.400 175.600 276.800 175.600 L 287.200 175.600 287.200 124.400 L 287.200 73.200 276.800 73.200 L 266.400 73.200 266.400 124.400 M201.345 87.000 C 201.511 87.433,202.190 87.600,203.787 87.600 C 205.487 87.600,206.000 87.739,206.000 88.200 C 206.000 88.600,206.400 88.800,207.200 88.800 C 208.000 88.800,208.400 89.000,208.400 89.400 C 208.400 89.730,208.651 90.000,208.957 90.000 C 209.264 90.000,209.618 90.270,209.745 90.600 C 209.871 90.930,210.431 91.200,210.987 91.200 C 211.621 91.200,212.000 91.425,212.000 91.800 C 212.000 92.130,212.270 92.400,212.600 92.400 C 212.930 92.400,213.200 92.670,213.200 93.000 C 213.200 93.330,213.470 93.600,213.800 93.600 C 214.130 93.600,214.400 93.870,214.400 94.200 C 214.400 94.530,214.670 94.800,215.000 94.800 C 215.330 94.800,215.600 95.070,215.600 95.400 C 215.600 95.730,215.870 96.000,216.200 96.000 C 216.575 96.000,216.800 96.379,216.800 97.013 C 216.800 97.569,217.070 98.129,217.400 98.255 C 217.730 98.382,218.000 98.736,218.000 99.043 C 218.000 99.349,218.270 99.600,218.600 99.600 C 218.975 99.600,219.200 99.979,219.200 100.613 C 219.200 101.169,219.470 101.729,219.800 101.855 C 220.130 101.982,220.400 102.522,220.400 103.055 C 220.400 103.589,220.670 104.129,221.000 104.255 C 221.342 104.387,221.600 104.983,221.600 105.643 C 221.600 106.358,221.810 106.800,222.150 106.800 C 222.530 106.800,222.759 107.495,222.886 109.037 C 222.988 110.267,223.258 111.392,223.486 111.537 C 223.714 111.682,223.979 113.049,224.074 114.575 C 224.177 116.225,224.440 117.413,224.724 117.508 C 225.067 117.622,225.200 119.548,225.200 124.400 C 225.200 129.252,225.067 131.178,224.724 131.292 C 224.440 131.387,224.178 132.574,224.075 134.225 C 223.965 136.011,223.707 137.114,223.352 137.320 C 223.034 137.504,222.800 138.292,222.800 139.177 C 222.800 140.175,222.589 140.795,222.200 140.945 C 221.804 141.097,221.600 141.723,221.600 142.787 C 221.600 143.954,221.434 144.400,221.000 144.400 C 220.600 144.400,220.400 144.800,220.400 145.600 C 220.400 146.400,220.200 146.800,219.800 146.800 C 219.470 146.800,219.200 147.051,219.200 147.357 C 219.200 147.664,218.930 148.018,218.600 148.145 C 218.270 148.271,218.000 148.831,218.000 149.387 C 218.000 150.021,217.775 150.400,217.400 150.400 C 217.070 150.400,216.800 150.570,216.800 150.778 C 216.800 151.271,211.671 156.400,211.178 156.400 C 210.970 156.400,210.800 156.670,210.800 157.000 C 210.800 157.330,210.530 157.600,210.200 157.600 C 209.870 157.600,209.600 157.870,209.600 158.200 C 209.600 158.600,209.200 158.800,208.400 158.800 C 207.600 158.800,207.200 159.000,207.200 159.400 C 207.200 159.800,206.800 160.000,206.000 160.000 C 205.200 160.000,204.800 160.200,204.800 160.600 C 204.800 161.044,204.333 161.200,203.000 161.200 C 201.667 161.200,201.200 161.356,201.200 161.800 C 201.200 162.300,200.405 162.400,196.443 162.400 C 192.583 162.400,191.642 162.287,191.455 161.800 C 191.289 161.367,190.610 161.200,189.013 161.200 C 187.313 161.200,186.800 161.061,186.800 160.600 C 186.800 160.200,186.400 160.000,185.600 160.000 C 184.800 160.000,184.400 159.800,184.400 159.400 C 184.400 159.070,184.149 158.800,183.843 158.800 C 183.536 158.800,183.182 158.530,183.055 158.200 C 182.929 157.870,182.369 157.600,181.813 157.600 C 181.179 157.600,180.800 157.375,180.800 157.000 C 180.800 156.670,180.530 156.400,180.200 156.400 C 179.870 156.400,179.600 156.130,179.600 155.800 C 179.600 155.470,179.426 155.200,179.213 155.200 C 178.710 155.200,176.000 152.490,176.000 151.987 C 176.000 151.774,175.744 151.600,175.432 151.600 C 175.119 151.600,174.745 151.060,174.600 150.400 C 174.455 149.740,174.171 149.200,173.968 149.200 C 173.766 149.200,173.600 148.930,173.600 148.600 C 173.600 148.270,173.330 148.000,173.000 148.000 C 172.621 148.000,172.400 147.618,172.400 146.963 C 172.400 146.262,172.141 145.857,171.600 145.716 C 171.033 145.568,170.800 145.170,170.800 144.353 C 170.800 143.595,170.595 143.200,170.200 143.200 C 169.756 143.200,169.600 142.733,169.600 141.400 C 169.600 140.067,169.444 139.600,169.000 139.600 C 168.533 139.600,168.400 139.067,168.400 137.200 C 168.400 135.333,168.267 134.800,167.800 134.800 C 167.300 134.800,167.200 134.000,167.200 130.000 C 167.200 126.000,167.100 125.200,166.600 125.200 C 166.267 125.200,166.000 124.844,166.000 124.400 C 166.000 123.956,166.267 123.600,166.600 123.600 C 167.100 123.600,167.200 122.800,167.200 118.800 C 167.200 114.800,167.300 114.000,167.800 114.000 C 168.267 114.000,168.400 113.467,168.400 111.600 C 168.400 109.733,168.533 109.200,169.000 109.200 C 169.444 109.200,169.600 108.733,169.600 107.400 C 169.600 106.067,169.756 105.600,170.200 105.600 C 170.595 105.600,170.800 105.205,170.800 104.447 C 170.800 103.630,171.033 103.232,171.600 103.084 C 172.141 102.943,172.400 102.538,172.400 101.837 C 172.400 101.182,172.621 100.800,173.000 100.800 C 173.400 100.800,173.600 100.400,173.600 99.600 C 173.600 98.800,173.800 98.400,174.200 98.400 C 174.530 98.400,174.800 98.228,174.800 98.017 C 174.800 97.494,181.062 91.200,181.583 91.200 C 181.812 91.200,182.000 90.930,182.000 90.600 C 182.000 90.200,182.400 90.000,183.200 90.000 C 184.000 90.000,184.400 89.800,184.400 89.400 C 184.400 89.000,184.800 88.800,185.600 88.800 C 186.400 88.800,186.800 88.600,186.800 88.200 C 186.800 87.739,187.313 87.600,189.013 87.600 C 190.610 87.600,191.289 87.433,191.455 87.000 C 191.642 86.514,192.578 86.400,196.400 86.400 C 200.222 86.400,201.158 86.514,201.345 87.000 " stroke="none" fill="#0c341c" fill-rule="evenodd"></path><path id="path2" d="M279.058 243.387 C 278.650 243.696,278.380 244.124,278.458 244.338 C 278.536 244.551,278.923 244.293,279.319 243.763 C 280.140 242.662,280.098 242.600,279.058 243.387 M218.101 295.000 C 218.105 295.880,218.187 296.193,218.283 295.695 C 218.379 295.198,218.375 294.478,218.275 294.095 C 218.175 293.713,218.096 294.120,218.101 295.000 M220.493 305.600 C 220.493 306.370,220.575 306.685,220.676 306.300 C 220.776 305.915,220.776 305.285,220.676 304.900 C 220.575 304.515,220.493 304.830,220.493 305.600 M349.700 365.500 C 357.785 365.560,371.015 365.560,379.100 365.500 C 387.185 365.439,380.570 365.390,364.400 365.390 C 348.230 365.390,341.615 365.439,349.700 365.500 M79.100 367.897 C 80.695 367.973,83.305 367.973,84.900 367.897 C 86.495 367.821,85.190 367.759,82.000 367.759 C 78.810 367.759,77.505 367.821,79.100 367.897 " stroke="none" fill="#c02824" fill-rule="evenodd"></path><path id="path3" d="M279.058 243.387 C 278.650 243.696,278.380 244.124,278.458 244.338 C 278.536 244.551,278.923 244.293,279.319 243.763 C 280.140 242.662,280.098 242.600,279.058 243.387 M218.101 295.000 C 218.105 295.880,218.187 296.193,218.283 295.695 C 218.379 295.198,218.375 294.478,218.275 294.095 C 218.175 293.713,218.096 294.120,218.101 295.000 M220.493 305.600 C 220.493 306.370,220.575 306.685,220.676 306.300 C 220.776 305.915,220.776 305.285,220.676 304.900 C 220.575 304.515,220.493 304.830,220.493 305.600 M349.700 365.500 C 357.785 365.560,371.015 365.560,379.100 365.500 C 387.185 365.439,380.570 365.390,364.400 365.390 C 348.230 365.390,341.615 365.439,349.700 365.500 M79.100 367.897 C 80.695 367.973,83.305 367.973,84.900 367.897 C 86.495 367.821,85.190 367.759,82.000 367.759 C 78.810 367.759,77.505 367.821,79.100 367.897 " stroke="none" fill="#c02824" fill-rule="evenodd"></path><path id="path4" d="M279.058 243.387 C 278.650 243.696,278.380 244.124,278.458 244.338 C 278.536 244.551,278.923 244.293,279.319 243.763 C 280.140 242.662,280.098 242.600,279.058 243.387 M218.101 295.000 C 218.105 295.880,218.187 296.193,218.283 295.695 C 218.379 295.198,218.375 294.478,218.275 294.095 C 218.175 293.713,218.096 294.120,218.101 295.000 M220.493 305.600 C 220.493 306.370,220.575 306.685,220.676 306.300 C 220.776 305.915,220.776 305.285,220.676 304.900 C 220.575 304.515,220.493 304.830,220.493 305.600 M349.700 365.500 C 357.785 365.560,371.015 365.560,379.100 365.500 C 387.185 365.439,380.570 365.390,364.400 365.390 C 348.230 365.390,341.615 365.439,349.700 365.500 M79.100 367.897 C 80.695 367.973,83.305 367.973,84.900 367.897 C 86.495 367.821,85.190 367.759,82.000 367.759 C 78.810 367.759,77.505 367.821,79.100 367.897 " stroke="none" fill="#c02824" fill-rule="evenodd"></path></g></svg>