<svg id="svg" version="1.1" xmlns="http://www.w3.org/2000/svg" xmlns:xlink="http://www.w3.org/1999/xlink" width="400" height="406.0377358490566" viewBox="0, 0, 400,406.0377358490566"><g id="svgg"><path id="path0" d="M186.498 323.700 L 186.600 371.800 193.300 371.910 L 200.000 372.019 200.000 350.810 C 200.000 329.867,200.010 329.600,200.800 329.600 C 201.501 329.600,201.600 329.333,201.600 327.447 C 201.600 325.595,201.718 325.262,202.440 325.074 C 202.902 324.953,203.177 324.686,203.050 324.480 C 202.923 324.275,203.175 323.785,203.609 323.391 C 204.044 322.998,204.400 322.254,204.400 321.738 C 204.400 321.067,204.627 320.800,205.200 320.800 C 205.733 320.800,206.000 320.533,206.000 320.000 C 206.000 319.352,206.267 319.200,207.400 319.200 C 208.533 319.200,208.800 319.048,208.800 318.400 C 208.800 317.778,209.067 317.600,210.000 317.600 C 210.690 317.600,211.203 317.388,211.206 317.100 C 211.210 316.767,211.342 316.800,211.600 317.200 C 211.914 317.685,211.989 317.628,211.994 316.900 C 212.003 315.575,220.970 315.479,221.316 316.800 C 221.446 317.296,221.862 317.600,222.409 317.600 C 223.096 317.600,223.247 317.778,223.084 318.400 C 222.905 319.084,223.072 319.200,224.237 319.200 C 225.494 319.200,225.600 319.296,225.600 320.437 C 225.600 321.338,225.817 321.732,226.400 321.884 C 227.137 322.077,227.416 322.908,227.223 324.331 C 227.183 324.623,227.522 324.959,227.975 325.078 C 228.714 325.271,228.800 325.600,228.800 328.247 C 228.800 330.597,228.922 331.200,229.396 331.200 C 229.916 331.200,230.006 333.824,230.096 351.500 L 230.200 371.800 236.900 371.910 L 243.600 372.019 243.600 347.210 C 243.600 325.423,243.527 322.400,243.000 322.400 C 242.540 322.400,242.400 321.892,242.400 320.227 C 242.400 318.405,242.271 318.013,241.600 317.800 C 241.005 317.611,240.800 317.195,240.800 316.173 C 240.800 315.067,240.645 314.800,240.000 314.800 C 239.333 314.800,239.200 314.533,239.200 313.200 C 239.200 311.867,239.067 311.600,238.400 311.600 C 237.867 311.600,237.600 311.333,237.600 310.800 C 237.600 310.356,237.333 310.000,237.000 310.000 C 236.670 310.000,236.400 309.743,236.400 309.428 C 236.400 309.113,235.995 308.798,235.500 308.728 C 234.899 308.642,234.639 308.367,234.718 307.900 C 234.813 307.329,234.536 307.200,233.218 307.200 C 231.883 307.200,231.600 307.064,231.600 306.424 C 231.600 305.816,231.275 305.621,230.100 305.524 C 229.089 305.440,228.600 305.205,228.600 304.800 C 228.600 303.712,212.018 303.690,211.138 304.777 C 210.737 305.272,209.910 305.635,209.039 305.697 C 207.976 305.773,207.601 305.982,207.601 306.500 C 207.600 307.125,206.293 307.472,205.346 307.100 C 205.206 307.045,204.942 307.405,204.759 307.900 C 204.576 308.395,204.150 308.800,203.813 308.800 C 203.470 308.800,203.200 309.147,203.200 309.587 C 203.200 310.136,203.011 310.302,202.576 310.135 C 202.159 309.976,201.878 310.179,201.729 310.748 C 201.602 311.237,201.186 311.600,200.753 311.600 C 200.027 311.600,200.000 310.962,200.000 293.600 L 200.000 275.600 193.198 275.600 L 186.397 275.600 186.498 323.700 M156.400 286.882 C 156.400 287.492,156.044 287.600,154.033 287.600 C 151.303 287.600,150.400 287.859,150.400 288.643 C 150.400 289.057,149.785 289.200,148.000 289.200 C 146.680 289.200,145.621 289.335,145.647 289.500 C 145.673 289.665,145.673 293.350,145.647 297.688 L 145.600 305.576 140.500 305.688 L 135.400 305.800 135.288 310.900 L 135.176 316.000 140.388 316.000 L 145.600 316.000 145.600 339.237 C 145.600 362.138,145.612 362.478,146.400 362.684 C 147.116 362.871,147.534 364.919,147.255 366.876 C 147.234 367.027,147.573 367.264,148.008 367.403 C 148.444 367.541,148.800 367.929,148.800 368.264 C 148.800 368.600,149.160 368.969,149.600 369.084 C 150.040 369.199,150.400 369.542,150.400 369.847 C 150.400 370.151,150.768 370.400,151.218 370.400 C 151.774 370.400,151.998 370.623,151.918 371.100 C 151.826 371.646,152.129 371.827,153.300 371.924 C 154.455 372.020,154.800 372.220,154.800 372.798 C 154.800 373.931,173.860 374.043,174.282 372.912 C 174.428 372.520,174.858 371.976,175.239 371.702 C 175.619 371.428,175.869 370.888,175.795 370.502 C 175.722 370.116,175.647 369.665,175.631 369.500 C 175.614 369.335,175.337 369.200,175.015 369.200 C 174.552 369.200,174.406 368.428,174.315 365.500 L 174.200 361.800 168.900 361.688 C 163.874 361.583,163.600 361.535,163.600 360.763 C 163.600 360.228,163.361 359.974,162.900 360.021 C 161.124 360.202,160.849 360.009,160.724 358.500 C 160.630 357.359,160.433 357.013,159.900 357.056 C 159.242 357.108,159.200 355.887,159.200 336.556 L 159.200 316.000 167.612 316.000 L 176.024 316.000 175.912 310.900 L 175.800 305.800 167.500 305.692 L 159.200 305.584 159.200 295.779 L 159.200 285.975 157.800 286.069 C 156.755 286.140,156.400 286.346,156.400 286.882 M278.512 304.815 C 278.320 305.550,277.167 305.807,274.500 305.707 C 274.225 305.697,274.000 306.029,274.000 306.444 C 274.000 306.977,273.714 307.200,273.033 307.200 C 271.652 307.200,270.800 307.598,270.800 308.243 C 270.800 308.549,270.530 308.800,270.200 308.800 C 269.870 308.800,269.600 309.070,269.600 309.400 C 269.600 309.800,269.200 310.000,268.400 310.000 C 267.740 310.000,267.200 310.191,267.200 310.424 C 267.200 310.657,266.975 310.718,266.700 310.559 C 266.425 310.401,266.333 310.419,266.497 310.599 C 266.886 311.029,266.022 312.061,265.528 311.755 C 265.318 311.626,265.047 311.898,264.926 312.360 C 264.806 312.822,264.458 313.200,264.153 313.200 C 263.849 313.200,263.600 313.560,263.600 314.000 C 263.600 314.440,263.240 315.160,262.800 315.600 C 262.360 316.040,262.000 316.670,262.000 317.000 C 262.000 317.333,261.644 317.600,261.200 317.600 C 260.537 317.600,260.400 317.867,260.400 319.153 C 260.400 320.370,260.227 320.752,259.600 320.916 C 258.989 321.076,258.800 321.462,258.800 322.550 C 258.800 323.652,258.664 323.923,258.200 323.745 C 257.859 323.614,257.574 323.748,257.539 324.057 C 257.506 324.356,257.436 324.780,257.385 325.000 C 257.334 325.220,257.272 326.075,257.246 326.900 C 257.214 327.946,257.018 328.400,256.600 328.400 C 255.716 328.400,255.695 348.990,256.578 349.484 C 256.928 349.679,257.185 350.517,257.230 351.604 C 257.337 354.216,257.614 355.200,258.243 355.200 C 258.753 355.200,259.003 356.204,258.823 357.531 C 258.783 357.823,259.122 358.159,259.575 358.278 C 260.199 358.441,260.400 358.816,260.400 359.820 C 260.400 360.795,260.612 361.213,261.200 361.400 C 261.640 361.540,262.000 361.912,262.000 362.227 C 262.000 362.542,262.360 362.800,262.800 362.800 C 263.333 362.800,263.600 363.067,263.600 363.600 C 263.600 364.044,263.867 364.400,264.200 364.400 C 264.533 364.400,264.800 364.756,264.800 365.200 C 264.800 365.733,265.067 366.000,265.600 366.000 C 266.133 366.000,266.400 366.267,266.400 366.800 C 266.400 367.324,266.667 367.600,267.173 367.600 C 267.598 367.600,268.059 367.956,268.197 368.392 C 268.336 368.827,268.573 369.166,268.724 369.145 C 269.835 368.986,270.800 369.291,270.800 369.800 C 270.800 370.233,271.244 370.400,272.400 370.400 C 273.733 370.400,274.000 370.533,274.000 371.200 C 274.000 371.867,274.267 372.000,275.600 372.000 C 276.696 372.000,277.200 372.174,277.200 372.553 C 277.200 373.463,278.562 373.589,288.500 373.595 C 297.735 373.600,298.000 373.578,298.000 372.800 C 298.000 372.109,298.267 372.000,299.951 372.000 C 301.783 372.000,303.155 371.289,302.530 370.663 C 302.385 370.518,302.932 370.400,303.746 370.400 C 304.692 370.400,305.308 370.184,305.455 369.800 C 305.582 369.470,305.981 369.196,306.343 369.191 C 306.704 369.186,307.450 368.830,308.000 368.400 C 308.550 367.970,309.225 367.614,309.500 367.609 C 309.775 367.604,310.000 367.240,310.000 366.800 C 310.000 366.267,310.267 366.000,310.800 366.000 C 311.333 366.000,311.600 365.733,311.600 365.200 C 311.600 364.667,311.867 364.400,312.400 364.400 C 312.933 364.400,313.200 364.133,313.200 363.600 C 313.200 363.067,313.467 362.800,314.000 362.800 C 314.440 362.800,314.804 362.575,314.809 362.300 C 314.814 362.025,315.170 361.350,315.600 360.800 C 316.030 360.250,316.386 359.485,316.391 359.100 C 316.396 358.715,316.670 358.400,317.000 358.400 C 317.433 358.400,317.600 357.956,317.600 356.800 C 317.600 355.467,317.733 355.200,318.400 355.200 C 318.840 355.200,319.179 355.065,319.153 354.900 C 318.906 353.336,319.280 350.800,319.757 350.800 C 320.732 350.800,320.821 349.716,320.787 338.141 C 320.756 327.187,320.728 326.800,319.978 326.800 C 319.302 326.800,319.200 326.512,319.200 324.600 C 319.200 322.667,319.103 322.400,318.400 322.400 C 317.733 322.400,317.600 322.133,317.600 320.800 C 317.600 319.644,317.433 319.200,317.000 319.200 C 316.437 319.200,316.211 318.497,316.377 317.269 C 316.417 316.977,316.078 316.641,315.625 316.522 C 315.171 316.404,314.800 316.041,314.800 315.716 C 314.800 315.391,314.440 315.031,314.000 314.916 C 313.557 314.800,313.200 314.370,313.200 313.953 C 313.200 313.467,312.917 313.200,312.400 313.200 C 311.867 313.200,311.600 312.933,311.600 312.400 C 311.600 311.867,311.333 311.600,310.800 311.600 C 310.253 311.600,310.000 311.333,310.000 310.757 C 310.000 310.172,309.816 309.985,309.400 310.145 C 308.992 310.301,308.800 310.123,308.800 309.587 C 308.800 309.083,308.529 308.800,308.047 308.800 C 307.622 308.800,307.199 308.440,307.078 307.975 C 306.959 307.522,306.623 307.183,306.331 307.223 C 304.908 307.416,304.077 307.137,303.884 306.400 C 303.710 305.734,303.338 305.600,301.664 305.600 C 300.017 305.600,299.609 305.458,299.404 304.814 C 299.015 303.588,278.833 303.589,278.512 304.815 M358.511 304.818 C 358.343 305.462,357.955 305.600,356.316 305.600 C 354.662 305.600,354.290 305.735,354.116 306.400 C 354.000 306.843,353.570 307.200,353.153 307.200 C 352.667 307.200,352.400 307.483,352.400 308.000 C 352.400 308.648,352.133 308.800,351.000 308.800 C 349.867 308.800,349.600 308.952,349.600 309.600 C 349.600 310.129,349.333 310.400,348.813 310.400 C 348.277 310.400,348.099 310.592,348.255 311.000 C 348.403 311.385,348.247 311.600,347.819 311.600 C 347.453 311.600,347.263 311.778,347.397 311.995 C 347.537 312.222,347.377 312.289,347.021 312.153 C 346.532 311.965,346.400 311.242,346.400 308.757 L 346.400 305.600 340.400 305.600 L 334.400 305.600 334.400 338.800 L 334.400 372.000 341.200 372.000 L 348.000 372.000 348.000 350.800 C 348.000 329.651,348.002 329.600,348.825 329.600 C 349.371 329.600,349.626 329.363,349.579 328.900 C 349.365 326.796,349.633 325.200,350.200 325.200 C 350.580 325.200,350.800 324.817,350.800 324.153 C 350.800 323.304,350.951 323.146,351.600 323.316 C 352.284 323.495,352.400 323.328,352.400 322.163 C 352.400 321.067,352.557 320.800,353.200 320.800 C 353.733 320.800,354.000 320.533,354.000 320.000 C 354.000 319.352,354.267 319.200,355.400 319.200 C 356.519 319.200,356.800 319.044,356.800 318.424 C 356.800 317.816,357.125 317.621,358.300 317.524 C 359.311 317.440,359.800 317.205,359.800 316.800 C 359.800 316.307,360.639 316.180,364.500 316.087 C 368.995 315.980,369.200 316.010,369.200 316.787 C 369.200 317.333,369.463 317.600,370.000 317.600 C 370.533 317.600,370.800 317.867,370.800 318.400 C 370.800 319.048,371.067 319.200,372.200 319.200 C 373.533 319.200,373.600 319.267,373.600 320.600 C 373.600 321.733,373.752 322.000,374.400 322.000 C 375.068 322.000,375.200 322.267,375.200 323.618 C 375.200 324.936,375.329 325.213,375.900 325.118 C 376.505 325.016,376.616 325.397,376.718 327.919 C 376.803 330.024,376.998 330.901,377.418 331.062 C 377.917 331.254,378.000 334.195,378.000 351.643 L 378.000 372.000 384.800 372.000 L 391.600 372.000 391.600 347.200 C 391.600 322.667,391.591 322.400,390.800 322.400 C 390.088 322.400,390.000 322.133,390.000 319.976 C 390.000 318.582,389.842 317.651,389.628 317.783 C 389.110 318.103,388.752 317.405,388.712 315.995 C 388.687 315.112,388.485 314.800,387.939 314.800 C 387.361 314.800,387.200 314.495,387.200 313.400 C 387.200 312.412,387.020 312.000,386.590 312.000 C 386.255 312.000,385.802 311.532,385.585 310.959 C 385.325 310.277,384.984 309.997,384.594 310.147 C 384.200 310.298,384.000 310.125,384.000 309.634 C 384.000 309.218,383.632 308.797,383.160 308.674 C 382.698 308.553,382.427 308.281,382.557 308.069 C 382.838 307.615,381.911 307.200,380.614 307.200 C 380.030 307.200,379.617 306.908,379.484 306.400 C 379.333 305.822,378.938 305.600,378.064 305.600 C 377.213 305.600,376.780 305.367,376.605 304.815 C 376.217 303.595,358.830 303.598,358.511 304.818 M292.000 315.400 C 292.000 315.833,292.444 316.000,293.600 316.000 C 295.073 316.000,295.411 316.267,295.247 317.300 C 295.221 317.465,295.335 317.579,295.500 317.553 C 296.964 317.321,298.000 317.672,298.000 318.400 C 298.000 318.933,298.267 319.200,298.800 319.200 C 299.333 319.200,299.600 319.467,299.600 320.000 C 299.600 320.533,299.867 320.800,300.400 320.800 C 300.840 320.800,301.200 321.058,301.200 321.373 C 301.200 321.688,301.560 322.060,302.000 322.200 C 302.595 322.389,302.800 322.805,302.800 323.827 C 302.800 324.781,302.983 325.200,303.400 325.200 C 303.743 325.200,304.018 325.586,304.043 326.100 C 304.066 326.595,304.125 327.270,304.174 327.600 C 304.223 327.930,304.294 328.534,304.332 328.943 C 304.376 329.426,304.610 329.605,305.000 329.455 C 305.576 329.234,305.720 330.340,305.708 334.890 C 305.707 335.269,306.042 335.686,306.453 335.817 C 307.640 336.194,307.574 342.000,306.382 342.000 C 305.933 342.000,305.594 342.225,305.630 342.500 C 305.900 344.584,305.540 348.000,305.050 348.000 C 304.502 348.000,304.000 349.648,304.000 351.450 C 304.000 352.028,303.765 352.400,303.400 352.400 C 303.070 352.400,302.800 352.739,302.800 353.153 C 302.800 353.570,302.443 354.000,302.000 354.116 C 301.417 354.268,301.200 354.662,301.200 355.563 C 301.200 356.533,301.028 356.800,300.400 356.800 C 299.867 356.800,299.600 357.067,299.600 357.600 C 299.600 358.133,299.333 358.400,298.800 358.400 C 298.267 358.400,298.000 358.667,298.000 359.200 C 298.000 359.848,297.733 360.000,296.600 360.000 C 295.467 360.000,295.200 360.152,295.200 360.800 C 295.200 361.503,294.933 361.600,293.000 361.600 C 291.311 361.600,290.800 361.739,290.800 362.200 C 290.800 362.661,290.289 362.800,288.600 362.800 C 285.697 362.800,285.786 362.817,285.895 362.274 C 285.955 361.969,285.243 361.755,283.902 361.674 C 281.936 361.556,281.004 361.041,281.450 360.319 C 281.558 360.144,280.917 360.000,280.024 360.000 C 278.667 360.000,278.400 359.869,278.400 359.200 C 278.400 358.667,278.133 358.400,277.600 358.400 C 277.067 358.400,276.800 358.133,276.800 357.600 C 276.800 357.160,276.590 356.845,276.333 356.900 C 276.076 356.955,275.695 356.314,275.487 355.475 C 275.227 354.427,274.935 354.016,274.554 354.162 C 274.174 354.308,274.000 354.065,274.000 353.387 C 274.000 352.667,273.784 352.400,273.200 352.400 C 272.441 352.400,272.083 350.715,272.370 348.500 C 272.406 348.225,272.067 348.000,271.618 348.000 C 270.872 348.000,270.800 347.753,270.800 345.187 C 270.800 343.056,270.655 342.319,270.200 342.145 C 269.741 341.969,269.600 341.215,269.600 338.945 C 269.600 336.674,269.741 335.921,270.200 335.745 C 270.658 335.569,270.800 334.817,270.800 332.557 C 270.800 329.837,270.866 329.600,271.625 329.600 C 272.171 329.600,272.426 329.363,272.379 328.900 C 272.133 326.478,272.416 325.200,273.200 325.200 C 273.848 325.200,274.000 324.933,274.000 323.800 C 274.000 322.786,274.176 322.400,274.637 322.400 C 274.988 322.400,275.369 322.040,275.484 321.600 C 275.599 321.160,275.942 320.800,276.247 320.800 C 276.551 320.800,276.800 320.440,276.800 320.000 C 276.800 319.467,277.067 319.200,277.600 319.200 C 278.133 319.200,278.400 318.933,278.400 318.400 C 278.400 317.752,278.667 317.600,279.800 317.600 C 281.072 317.600,281.405 317.301,281.247 316.300 C 281.221 316.135,281.920 316.000,282.800 316.000 C 283.956 316.000,284.400 315.833,284.400 315.400 C 284.400 314.909,285.089 314.800,288.200 314.800 C 291.311 314.800,292.000 314.909,292.000 315.400 " stroke="none" fill="#e4cc04" fill-rule="evenodd"></path><path id="path1" d="M12.800 282.200 C 12.800 282.530,12.455 282.800,12.033 282.800 C 9.849 282.800,10.000 279.469,10.000 327.643 L 10.000 372.000 16.600 372.000 L 23.200 372.000 23.200 354.600 L 23.200 337.200 33.200 337.200 C 41.448 337.200,43.200 337.103,43.200 336.647 C 43.200 336.248,43.940 336.046,45.840 335.925 C 47.785 335.801,48.580 335.578,48.860 335.078 C 49.087 334.672,49.728 334.400,50.457 334.400 C 51.338 334.400,51.733 334.179,51.884 333.600 C 52.040 333.003,52.430 332.800,53.420 332.800 C 54.370 332.800,54.814 332.585,54.986 332.043 C 55.118 331.627,55.581 331.194,56.013 331.081 C 56.446 330.967,56.800 330.588,56.800 330.237 C 56.800 329.887,57.070 329.600,57.400 329.600 C 57.730 329.600,58.000 329.330,58.000 329.000 C 58.000 328.667,58.356 328.400,58.800 328.400 C 59.317 328.400,59.600 328.133,59.600 327.647 C 59.600 327.230,59.957 326.800,60.400 326.684 C 60.840 326.569,61.200 326.188,61.200 325.837 C 61.200 325.487,61.462 325.200,61.782 325.200 C 62.128 325.200,62.468 324.644,62.621 323.828 C 62.763 323.073,63.131 322.359,63.439 322.240 C 63.827 322.092,64.000 321.341,64.000 319.813 C 64.000 317.867,64.096 317.600,64.800 317.600 C 65.578 317.600,65.600 317.333,65.600 307.963 C 65.600 298.662,65.572 298.318,64.800 298.116 C 64.199 297.959,64.000 297.570,64.000 296.553 C 64.000 295.617,63.815 295.200,63.400 295.200 C 63.032 295.200,62.800 294.826,62.800 294.233 C 62.800 292.883,62.406 292.000,61.804 292.000 C 61.523 292.000,61.199 291.640,61.084 291.200 C 60.969 290.760,60.588 290.400,60.237 290.400 C 59.887 290.400,59.600 290.130,59.600 289.800 C 59.600 289.467,59.244 289.200,58.800 289.200 C 58.267 289.200,58.000 288.933,58.000 288.400 C 58.000 287.960,57.742 287.600,57.427 287.600 C 57.112 287.600,56.740 287.240,56.600 286.800 C 56.411 286.205,55.995 286.000,54.973 286.000 C 53.867 286.000,53.600 285.845,53.600 285.200 C 53.600 284.533,53.333 284.400,52.000 284.400 C 50.844 284.400,50.400 284.233,50.400 283.800 C 50.400 283.435,50.028 283.200,49.450 283.200 C 47.648 283.200,46.000 282.698,46.000 282.150 C 46.000 281.692,43.218 281.600,29.400 281.600 C 14.911 281.600,12.800 281.676,12.800 282.200 M34.116 292.800 C 34.306 293.525,34.662 293.600,37.916 293.600 C 41.170 293.600,41.526 293.675,41.716 294.400 C 41.866 294.975,42.262 295.200,43.120 295.200 C 43.813 295.200,44.411 295.452,44.545 295.800 C 44.689 296.177,45.301 296.400,46.187 296.400 C 47.333 296.400,47.600 296.551,47.600 297.200 C 47.600 297.733,47.867 298.000,48.400 298.000 C 49.067 298.000,49.200 298.267,49.200 299.600 C 49.200 300.756,49.367 301.200,49.800 301.200 C 50.204 301.200,50.400 301.604,50.400 302.437 C 50.400 303.338,50.617 303.732,51.200 303.884 C 51.940 304.078,52.000 304.430,52.000 308.600 C 52.000 312.770,51.940 313.122,51.200 313.316 C 50.587 313.476,50.400 313.862,50.400 314.963 C 50.400 315.974,50.222 316.400,49.800 316.400 C 49.381 316.400,49.200 316.822,49.200 317.800 C 49.200 318.933,49.048 319.200,48.400 319.200 C 47.867 319.200,47.600 319.467,47.600 320.000 C 47.600 320.533,47.333 320.800,46.800 320.800 C 46.267 320.800,46.000 321.067,46.000 321.600 C 46.000 322.248,45.733 322.400,44.600 322.400 C 43.622 322.400,43.200 322.581,43.200 323.000 C 43.200 323.422,42.774 323.600,41.763 323.600 C 40.662 323.600,40.276 323.787,40.116 324.400 C 39.915 325.168,39.570 325.200,31.553 325.200 L 23.200 325.200 23.200 309.400 L 23.200 293.600 26.173 293.600 C 28.795 293.600,29.176 293.505,29.400 292.800 C 29.612 292.132,30.005 292.000,31.780 292.000 C 33.570 292.000,33.940 292.127,34.116 292.800 M73.241 308.454 C 73.311 310.850,73.443 311.338,74.062 311.500 C 74.619 311.646,74.800 312.073,74.800 313.247 C 74.800 314.533,74.937 314.800,75.600 314.800 C 76.303 314.800,76.400 315.067,76.400 317.000 C 76.400 318.689,76.539 319.200,77.000 319.200 C 77.417 319.200,77.600 319.619,77.600 320.573 C 77.600 321.595,77.805 322.011,78.400 322.200 C 79.150 322.438,79.489 323.972,79.223 325.931 C 79.183 326.223,79.522 326.559,79.975 326.678 C 80.603 326.842,80.800 327.216,80.800 328.247 C 80.800 329.333,80.958 329.600,81.600 329.600 C 82.304 329.600,82.400 329.867,82.400 331.813 C 82.400 333.410,82.567 334.089,83.000 334.255 C 83.330 334.382,83.600 334.812,83.600 335.210 C 83.600 336.362,84.039 337.200,84.643 337.200 C 85.046 337.200,85.200 337.763,85.200 339.237 C 85.200 340.938,85.332 341.309,86.000 341.484 C 86.627 341.648,86.800 342.030,86.800 343.247 C 86.800 344.533,86.937 344.800,87.600 344.800 C 88.303 344.800,88.400 345.067,88.400 347.000 C 88.400 348.933,88.497 349.200,89.200 349.200 C 89.867 349.200,90.000 349.467,90.000 350.800 C 90.000 351.956,90.167 352.400,90.600 352.400 C 91.031 352.400,91.200 352.841,91.200 353.967 C 91.200 355.922,91.523 356.800,92.243 356.800 C 92.626 356.800,92.800 357.299,92.800 358.400 C 92.800 359.733,92.933 360.000,93.600 360.000 C 94.303 360.000,94.400 360.267,94.400 362.200 C 94.400 364.133,94.497 364.400,95.200 364.400 C 95.867 364.400,96.000 364.667,96.000 366.000 C 96.000 367.156,96.167 367.600,96.600 367.600 C 96.933 367.600,97.200 367.956,97.200 368.400 C 97.200 368.844,96.933 369.200,96.600 369.200 C 96.185 369.200,96.000 369.617,96.000 370.553 C 96.000 371.570,95.801 371.959,95.200 372.116 C 94.587 372.276,94.400 372.662,94.400 373.763 C 94.400 374.933,94.252 375.200,93.600 375.200 C 92.952 375.200,92.800 375.467,92.800 376.600 C 92.800 377.733,92.648 378.000,92.000 378.000 C 91.467 378.000,91.200 378.267,91.200 378.800 C 91.200 379.244,90.933 379.600,90.600 379.600 C 90.267 379.600,90.000 379.956,90.000 380.400 C 90.000 380.933,89.733 381.200,89.200 381.200 C 88.667 381.200,88.400 381.467,88.400 382.000 C 88.400 382.533,88.133 382.800,87.600 382.800 C 87.156 382.800,86.800 383.067,86.800 383.400 C 86.800 383.730,86.530 384.023,86.200 384.050 C 85.870 384.078,85.405 384.123,85.168 384.150 C 84.930 384.178,84.505 384.515,84.224 384.900 C 83.942 385.285,83.417 385.600,83.056 385.600 C 82.667 385.600,82.400 385.925,82.400 386.400 C 82.400 387.067,82.133 387.200,80.800 387.200 C 79.467 387.200,79.200 387.333,79.200 388.000 C 79.200 388.648,78.933 388.800,77.800 388.800 L 76.400 388.800 76.400 391.557 C 76.400 393.639,76.547 394.371,77.000 394.545 C 77.425 394.708,77.600 395.372,77.600 396.825 C 77.600 398.519,77.735 398.910,78.378 399.078 C 78.901 399.215,79.195 399.693,79.278 400.541 C 79.420 402.003,81.412 402.636,82.086 401.433 C 82.336 400.986,83.033 400.800,84.457 400.800 C 86.138 400.800,86.510 400.667,86.684 400.000 C 86.840 399.403,87.230 399.200,88.220 399.200 C 89.195 399.200,89.613 398.988,89.800 398.400 C 89.980 397.832,90.405 397.600,91.264 397.600 C 92.138 397.600,92.533 397.378,92.684 396.800 C 92.800 396.357,93.230 396.000,93.647 396.000 C 94.061 396.000,94.400 395.751,94.400 395.447 C 94.400 395.142,94.760 394.799,95.200 394.684 C 95.640 394.569,96.000 394.188,96.000 393.837 C 96.000 393.487,96.270 393.200,96.600 393.200 C 96.933 393.200,97.200 392.844,97.200 392.400 C 97.200 391.867,97.467 391.600,98.000 391.600 C 98.533 391.600,98.800 391.333,98.800 390.800 C 98.800 390.267,99.067 390.000,99.600 390.000 C 100.044 390.000,100.400 389.733,100.400 389.400 C 100.400 389.070,100.676 388.800,101.013 388.800 C 101.349 388.800,101.744 388.485,101.890 388.100 C 102.036 387.715,102.390 387.162,102.678 386.871 C 102.965 386.581,103.200 385.816,103.200 385.171 C 103.200 384.267,103.382 384.000,104.000 384.000 C 104.648 384.000,104.800 383.733,104.800 382.600 C 104.800 381.467,104.952 381.200,105.600 381.200 C 106.117 381.200,106.400 380.933,106.400 380.447 C 106.400 380.030,106.757 379.600,107.200 379.484 C 107.813 379.324,108.000 378.938,108.000 377.837 C 108.000 376.846,108.181 376.400,108.582 376.400 C 108.928 376.400,109.268 375.844,109.421 375.028 C 109.563 374.273,109.931 373.559,110.239 373.440 C 110.617 373.295,110.800 372.570,110.800 371.213 C 110.800 369.467,110.906 369.200,111.600 369.200 C 112.267 369.200,112.400 368.933,112.400 367.600 C 112.400 366.267,112.533 366.000,113.200 366.000 C 113.867 366.000,114.000 365.733,114.000 364.400 C 114.000 363.299,114.174 362.800,114.557 362.800 C 115.277 362.800,115.600 361.922,115.600 359.967 C 115.600 358.841,115.769 358.400,116.200 358.400 C 116.661 358.400,116.800 357.889,116.800 356.200 C 116.800 354.267,116.897 354.000,117.600 354.000 C 118.267 354.000,118.400 353.733,118.400 352.400 C 118.400 351.067,118.533 350.800,119.200 350.800 C 119.903 350.800,120.000 350.533,120.000 348.600 C 120.000 346.667,120.097 346.400,120.800 346.400 C 121.467 346.400,121.600 346.133,121.600 344.800 C 121.600 343.704,121.774 343.200,122.153 343.200 C 122.784 343.200,123.187 342.000,123.195 340.100 C 123.198 339.214,123.391 338.800,123.800 338.800 C 124.261 338.800,124.400 338.289,124.400 336.600 C 124.400 334.667,124.497 334.400,125.200 334.400 C 125.867 334.400,126.000 334.133,126.000 332.800 C 126.000 331.467,126.133 331.200,126.800 331.200 C 127.501 331.200,127.600 330.933,127.600 329.047 C 127.600 327.230,127.725 326.861,128.400 326.684 C 129.013 326.524,129.200 326.138,129.200 325.037 C 129.200 324.026,129.378 323.600,129.800 323.600 C 130.261 323.600,130.400 323.089,130.400 321.400 C 130.400 319.467,130.497 319.200,131.200 319.200 C 131.903 319.200,132.000 318.933,132.000 317.000 C 132.000 315.067,132.097 314.800,132.800 314.800 C 133.467 314.800,133.600 314.533,133.600 313.200 C 133.600 312.099,133.774 311.600,134.157 311.600 C 134.941 311.600,135.200 310.697,135.200 307.967 L 135.200 305.600 127.600 305.600 L 120.000 305.600 120.000 307.153 C 120.000 308.370,119.827 308.752,119.200 308.916 C 118.532 309.091,118.400 309.462,118.400 311.163 C 118.400 312.661,118.249 313.200,117.829 313.200 C 117.435 313.200,117.171 313.895,116.979 315.432 C 116.815 316.741,116.473 317.751,116.150 317.875 C 115.777 318.018,115.600 318.782,115.600 320.243 C 115.600 322.133,115.501 322.400,114.800 322.400 C 114.099 322.400,114.000 322.667,114.000 324.553 C 114.000 326.305,113.863 326.742,113.267 326.898 C 112.703 327.046,112.518 327.519,112.464 328.948 C 112.416 330.201,112.134 331.066,111.597 331.603 C 111.037 332.163,110.800 332.936,110.800 334.200 C 110.800 335.533,110.644 336.000,110.200 336.000 C 109.739 336.000,109.600 336.511,109.600 338.200 C 109.600 340.133,109.503 340.400,108.800 340.400 C 108.099 340.400,108.000 340.667,108.000 342.553 C 108.000 344.370,107.875 344.739,107.200 344.916 C 106.522 345.093,106.400 345.462,106.400 347.333 C 106.400 349.689,106.071 350.024,104.100 349.669 C 103.287 349.522,103.200 349.279,103.200 347.153 C 103.200 345.328,103.065 344.800,102.600 344.800 C 102.145 344.800,102.000 344.307,102.000 342.763 C 102.000 341.062,101.868 340.691,101.200 340.516 C 100.476 340.326,100.058 338.404,100.364 336.666 C 100.396 336.482,100.058 336.236,99.611 336.119 C 98.972 335.952,98.800 335.578,98.800 334.353 C 98.800 333.067,98.663 332.800,98.000 332.800 C 97.297 332.800,97.200 332.533,97.200 330.600 C 97.200 328.911,97.061 328.400,96.600 328.400 C 96.170 328.400,96.000 327.962,96.000 326.854 C 96.000 325.914,95.687 324.909,95.200 324.291 C 94.760 323.731,94.400 322.717,94.400 322.037 C 94.400 321.067,94.228 320.800,93.600 320.800 C 92.897 320.800,92.800 320.533,92.800 318.600 C 92.800 316.667,92.703 316.400,92.000 316.400 C 91.289 316.400,91.200 316.133,91.200 314.000 C 91.200 312.222,91.056 311.600,90.646 311.600 C 90.275 311.600,90.002 310.877,89.818 309.409 C 89.653 308.083,89.362 307.254,89.082 307.309 C 88.827 307.359,88.557 306.995,88.482 306.500 C 88.345 305.603,88.318 305.600,80.751 305.600 L 73.158 305.600 73.241 308.454 " stroke="none" fill="#3354f4" fill-rule="evenodd"></path><path id="path2" d="M343.600 126.000 L 343.600 219.600 356.400 219.600 L 369.200 219.600 369.200 126.000 L 369.200 32.400 356.400 32.400 L 343.600 32.400 343.600 126.000 M10.000 53.600 L 10.000 64.000 36.400 64.000 L 62.800 64.000 62.800 141.800 L 62.800 219.600 75.600 219.600 L 88.400 219.600 88.400 141.800 L 88.400 64.000 114.800 64.000 L 141.200 64.000 141.200 53.600 L 141.200 43.200 75.600 43.200 L 10.000 43.200 10.000 53.600 M289.200 43.800 C 289.200 44.222,288.774 44.400,287.763 44.400 C 286.685 44.400,286.275 44.591,286.126 45.163 C 286.016 45.583,285.583 46.016,285.163 46.126 C 284.743 46.235,284.400 46.612,284.400 46.963 C 284.400 47.313,284.130 47.600,283.800 47.600 C 283.381 47.600,283.200 48.022,283.200 49.000 C 283.200 50.133,283.048 50.400,282.400 50.400 C 281.628 50.400,281.600 50.667,281.600 58.000 C 281.600 65.333,281.628 65.600,282.400 65.600 C 283.067 65.600,283.200 65.867,283.200 67.200 C 283.200 68.356,283.367 68.800,283.800 68.800 C 284.130 68.800,284.400 69.070,284.400 69.400 C 284.400 69.733,284.756 70.000,285.200 70.000 C 285.733 70.000,286.000 70.267,286.000 70.800 C 286.000 71.467,286.267 71.600,287.600 71.600 C 288.933 71.600,289.200 71.733,289.200 72.400 C 289.200 73.171,289.467 73.200,296.600 73.200 C 303.733 73.200,304.000 73.171,304.000 72.400 C 304.000 71.748,304.267 71.600,305.437 71.600 C 306.538 71.600,306.924 71.413,307.084 70.800 C 307.200 70.357,307.630 70.000,308.047 70.000 C 308.461 70.000,308.800 69.724,308.800 69.387 C 308.800 69.051,309.070 68.671,309.400 68.545 C 309.770 68.403,310.000 67.795,310.000 66.957 C 310.000 65.867,310.157 65.600,310.800 65.600 C 311.571 65.600,311.600 65.333,311.600 58.227 C 311.600 51.205,311.562 50.842,310.800 50.600 C 310.205 50.411,310.000 49.995,310.000 48.973 C 310.000 48.071,309.810 47.600,309.447 47.600 C 309.142 47.600,308.799 47.240,308.684 46.800 C 308.569 46.360,308.209 46.000,307.884 46.000 C 307.559 46.000,307.199 45.640,307.084 45.200 C 306.924 44.587,306.538 44.400,305.437 44.400 C 304.426 44.400,304.000 44.222,304.000 43.800 C 304.000 43.288,302.911 43.200,296.600 43.200 C 290.289 43.200,289.200 43.288,289.200 43.800 M191.084 87.600 C 190.887 88.355,190.538 88.400,184.837 88.400 C 179.067 88.400,178.800 88.435,178.800 89.200 C 178.800 89.929,178.533 90.000,175.800 90.000 C 173.400 90.000,172.800 90.120,172.800 90.600 C 172.800 91.031,172.359 91.200,171.233 91.200 C 169.278 91.200,168.400 91.523,168.400 92.243 C 168.400 92.616,167.925 92.800,166.963 92.800 C 165.862 92.800,165.476 92.987,165.316 93.600 C 165.159 94.201,164.770 94.400,163.753 94.400 C 162.667 94.400,162.400 94.558,162.400 95.200 C 162.400 95.849,162.133 96.000,160.987 96.000 C 160.145 96.000,159.488 96.226,159.360 96.561 C 159.241 96.869,158.797 97.212,158.372 97.323 C 157.948 97.434,157.600 97.812,157.600 98.163 C 157.600 98.608,157.228 98.800,156.363 98.800 C 155.462 98.800,155.068 99.017,154.916 99.600 C 154.800 100.043,154.370 100.400,153.953 100.400 C 153.467 100.400,153.200 100.683,153.200 101.200 C 153.200 101.733,152.933 102.000,152.400 102.000 C 151.960 102.000,151.597 102.225,151.593 102.500 C 151.585 103.110,149.858 104.800,149.244 104.800 C 149.000 104.800,148.800 105.160,148.800 105.600 C 148.800 106.133,148.533 106.400,148.000 106.400 C 147.467 106.400,147.200 106.667,147.200 107.200 C 147.200 107.733,146.933 108.000,146.400 108.000 C 145.867 108.000,145.600 108.267,145.600 108.800 C 145.600 109.240,145.338 109.600,145.018 109.600 C 144.670 109.600,144.331 110.162,144.174 111.000 C 144.023 111.802,143.674 112.400,143.355 112.400 C 143.050 112.400,142.800 112.760,142.800 113.200 C 142.800 113.733,142.533 114.000,142.000 114.000 C 141.355 114.000,141.200 114.267,141.200 115.373 C 141.200 116.395,140.995 116.811,140.400 117.000 C 139.805 117.189,139.600 117.605,139.600 118.627 C 139.600 119.733,139.445 120.000,138.800 120.000 C 138.133 120.000,138.000 120.267,138.000 121.600 C 138.000 122.756,137.833 123.200,137.400 123.200 C 136.981 123.200,136.800 123.622,136.800 124.600 C 136.800 125.733,136.648 126.000,136.000 126.000 C 135.298 126.000,135.200 126.267,135.200 128.173 C 135.200 129.995,135.071 130.387,134.400 130.600 C 133.695 130.824,133.600 131.205,133.600 133.827 C 133.600 136.533,133.528 136.800,132.800 136.800 C 132.041 136.800,132.000 137.067,132.000 141.953 C 132.000 146.770,131.948 147.120,131.200 147.316 C 130.431 147.517,130.400 147.862,130.400 156.200 C 130.400 164.538,130.431 164.883,131.200 165.084 C 131.948 165.280,132.000 165.630,132.000 170.420 C 132.000 175.195,132.055 175.563,132.800 175.800 C 133.500 176.022,133.600 176.405,133.600 178.864 C 133.600 181.338,133.696 181.700,134.400 181.884 C 135.065 182.058,135.200 182.430,135.200 184.084 C 135.200 185.738,135.335 186.110,136.000 186.284 C 136.627 186.448,136.800 186.830,136.800 188.047 C 136.800 189.161,136.970 189.600,137.400 189.600 C 137.819 189.600,138.000 190.022,138.000 191.000 C 138.000 192.133,138.152 192.400,138.800 192.400 C 139.445 192.400,139.600 192.667,139.600 193.773 C 139.600 194.795,139.805 195.211,140.400 195.400 C 140.995 195.589,141.200 196.005,141.200 197.027 C 141.200 198.133,141.355 198.400,142.000 198.400 C 142.533 198.400,142.800 198.667,142.800 199.200 C 142.800 199.640,143.049 200.000,143.353 200.000 C 143.658 200.000,144.001 200.360,144.116 200.800 C 144.231 201.240,144.612 201.600,144.963 201.600 C 145.408 201.600,145.600 201.972,145.600 202.837 C 145.600 203.719,145.820 204.132,146.363 204.274 C 146.783 204.384,147.216 204.817,147.326 205.237 C 147.435 205.657,147.791 206.000,148.116 206.000 C 148.441 206.000,148.801 206.360,148.916 206.800 C 149.031 207.240,149.412 207.600,149.763 207.600 C 150.113 207.600,150.400 207.862,150.400 208.182 C 150.400 208.530,150.962 208.869,151.800 209.026 C 152.602 209.177,153.200 209.526,153.200 209.845 C 153.200 210.150,153.560 210.400,154.000 210.400 C 154.533 210.400,154.800 210.667,154.800 211.200 C 154.800 211.733,155.067 212.000,155.600 212.000 C 156.133 212.000,156.400 212.267,156.400 212.800 C 156.400 213.448,156.667 213.600,157.800 213.600 C 158.933 213.600,159.200 213.752,159.200 214.400 C 159.200 214.933,159.467 215.200,160.000 215.200 C 160.444 215.200,160.800 215.467,160.800 215.800 C 160.800 216.233,161.244 216.400,162.400 216.400 C 163.733 216.400,164.000 216.533,164.000 217.200 C 164.000 217.842,164.267 218.000,165.353 218.000 C 166.370 218.000,166.759 218.199,166.916 218.800 C 167.090 219.465,167.462 219.600,169.116 219.600 C 170.770 219.600,171.142 219.735,171.316 220.400 C 171.500 221.104,171.862 221.200,174.336 221.200 C 176.795 221.200,177.178 221.300,177.400 222.000 C 177.639 222.753,178.005 222.800,183.627 222.800 C 188.670 222.800,189.600 222.893,189.600 223.400 C 189.600 224.244,195.008 224.271,195.480 223.429 C 195.731 222.982,197.164 222.831,202.129 222.729 C 207.658 222.616,208.507 222.512,208.849 221.900 C 209.147 221.367,209.759 221.200,211.420 221.200 C 213.333 221.200,213.600 221.102,213.600 220.400 C 213.600 219.697,213.867 219.600,215.800 219.600 C 217.733 219.600,218.000 219.503,218.000 218.800 C 218.000 218.133,218.267 218.000,219.600 218.000 C 220.933 218.000,221.200 217.867,221.200 217.200 C 221.200 216.552,221.467 216.400,222.600 216.400 C 223.578 216.400,224.000 216.219,224.000 215.800 C 224.000 215.378,224.426 215.200,225.437 215.200 C 226.538 215.200,226.924 215.013,227.084 214.400 C 227.234 213.826,227.630 213.600,228.484 213.600 C 229.338 213.600,229.734 213.374,229.884 212.800 C 230.000 212.357,230.430 212.000,230.847 212.000 C 231.333 212.000,231.600 211.717,231.600 211.200 C 231.600 210.667,231.867 210.400,232.400 210.400 C 232.840 210.400,233.200 210.150,233.200 209.845 C 233.200 209.526,233.798 209.177,234.600 209.026 C 235.438 208.869,236.000 208.530,236.000 208.182 C 236.000 207.862,236.287 207.600,236.637 207.600 C 236.988 207.600,237.369 207.240,237.484 206.800 C 237.599 206.360,237.959 206.000,238.284 206.000 C 238.609 206.000,238.969 205.640,239.084 205.200 C 239.199 204.760,239.559 204.400,239.884 204.400 C 240.209 204.400,240.569 204.040,240.684 203.600 C 240.799 203.160,241.123 202.800,241.404 202.800 C 241.974 202.800,242.400 201.930,242.400 200.767 C 242.400 200.345,242.670 200.000,243.000 200.000 C 243.333 200.000,243.600 199.644,243.600 199.200 C 243.600 198.667,243.867 198.400,244.400 198.400 C 245.048 198.400,245.200 198.133,245.200 197.000 C 245.200 195.867,245.352 195.600,246.000 195.600 C 246.517 195.600,246.800 195.333,246.800 194.847 C 246.800 194.430,247.157 194.000,247.600 193.884 C 248.206 193.725,248.400 193.338,248.400 192.284 C 248.400 191.230,248.594 190.843,249.200 190.684 C 249.775 190.534,250.000 190.138,250.000 189.280 C 250.000 188.587,250.252 187.989,250.600 187.855 C 251.033 187.689,251.200 187.010,251.200 185.413 C 251.200 183.467,251.296 183.200,252.000 183.200 C 252.703 183.200,252.800 182.933,252.800 181.000 C 252.800 179.067,252.897 178.800,253.600 178.800 C 254.329 178.800,254.400 178.533,254.400 175.800 C 254.400 173.502,254.530 172.800,254.957 172.800 C 255.944 172.800,256.000 171.805,256.000 154.330 C 256.000 137.462,255.984 137.121,255.200 136.916 C 254.490 136.730,254.400 136.370,254.400 133.716 C 254.400 131.062,254.310 130.702,253.600 130.516 C 252.925 130.339,252.800 129.970,252.800 128.153 C 252.800 126.267,252.701 126.000,252.000 126.000 C 251.297 126.000,251.200 125.733,251.200 123.800 C 251.200 122.189,251.051 121.600,250.645 121.600 C 250.325 121.600,249.976 120.997,249.822 120.179 C 249.676 119.397,249.296 118.658,248.978 118.536 C 248.653 118.411,248.400 117.792,248.400 117.120 C 248.400 116.262,248.175 115.866,247.600 115.716 C 247.157 115.600,246.800 115.170,246.800 114.753 C 246.800 114.267,246.517 114.000,246.000 114.000 C 245.358 114.000,245.200 113.733,245.200 112.647 C 245.200 111.630,245.001 111.241,244.400 111.084 C 243.960 110.969,243.600 110.588,243.600 110.237 C 243.600 109.887,243.330 109.600,243.000 109.600 C 242.667 109.600,242.400 109.244,242.400 108.800 C 242.400 108.267,242.133 108.000,241.600 108.000 C 241.067 108.000,240.800 107.733,240.800 107.200 C 240.800 106.667,240.533 106.400,240.000 106.400 C 239.467 106.400,239.200 106.133,239.200 105.600 C 239.200 105.067,238.933 104.800,238.400 104.800 C 237.948 104.800,237.600 104.533,237.600 104.187 C 237.600 103.851,237.330 103.471,237.000 103.345 C 236.670 103.218,236.400 102.864,236.400 102.557 C 236.400 102.251,236.040 102.000,235.600 102.000 C 235.067 102.000,234.800 101.733,234.800 101.200 C 234.800 100.667,234.533 100.400,234.000 100.400 C 233.467 100.400,233.200 100.133,233.200 99.600 C 233.200 99.083,232.933 98.800,232.447 98.800 C 232.030 98.800,231.600 98.443,231.484 98.000 C 231.332 97.417,230.938 97.200,230.037 97.200 C 229.204 97.200,228.800 97.004,228.800 96.600 C 228.800 96.270,228.461 96.000,228.047 96.000 C 227.630 96.000,227.200 95.643,227.084 95.200 C 226.925 94.594,226.538 94.400,225.484 94.400 C 224.430 94.400,224.043 94.206,223.884 93.600 C 223.709 92.932,223.338 92.800,221.637 92.800 C 219.867 92.800,219.600 92.695,219.600 92.000 C 219.600 91.333,219.333 91.200,218.000 91.200 C 216.844 91.200,216.400 91.033,216.400 90.600 C 216.400 90.120,215.800 90.000,213.400 90.000 C 210.667 90.000,210.400 89.929,210.400 89.200 C 210.400 88.436,210.133 88.400,204.447 88.400 C 198.830 88.400,198.481 88.355,198.284 87.600 C 198.096 86.879,197.738 86.800,194.684 86.800 C 191.630 86.800,191.273 86.879,191.084 87.600 M283.200 155.400 L 283.200 219.600 296.000 219.600 L 308.800 219.600 308.800 155.400 L 308.800 91.200 296.000 91.200 L 283.200 91.200 283.200 155.400 M200.000 108.550 C 200.000 109.179,201.704 109.600,204.250 109.600 C 205.539 109.600,206.000 109.758,206.000 110.200 C 206.000 110.633,206.444 110.800,207.600 110.800 C 208.933 110.800,209.200 110.933,209.200 111.600 C 209.200 112.117,209.467 112.400,209.953 112.400 C 210.370 112.400,210.800 112.757,210.916 113.200 C 211.068 113.783,211.462 114.000,212.363 114.000 C 213.333 114.000,213.600 114.172,213.600 114.800 C 213.600 115.333,213.867 115.600,214.400 115.600 C 214.844 115.600,215.200 115.867,215.200 116.200 C 215.200 116.533,215.556 116.800,216.000 116.800 C 216.533 116.800,216.800 117.067,216.800 117.600 C 216.800 118.044,217.067 118.400,217.400 118.400 C 217.733 118.400,218.000 118.756,218.000 119.200 C 218.000 119.733,218.267 120.000,218.800 120.000 C 219.448 120.000,219.600 120.267,219.600 121.400 C 219.600 122.533,219.752 122.800,220.400 122.800 C 220.933 122.800,221.200 123.067,221.200 123.600 C 221.200 124.133,221.467 124.400,222.000 124.400 C 222.667 124.400,222.800 124.667,222.800 126.000 C 222.800 127.156,222.967 127.600,223.400 127.600 C 223.730 127.600,224.000 127.945,224.000 128.367 C 224.000 129.559,224.431 130.400,225.043 130.400 C 225.426 130.400,225.600 130.899,225.600 132.000 C 225.600 133.333,225.733 133.600,226.400 133.600 C 227.125 133.600,227.200 133.867,227.200 136.437 C 227.200 138.938,227.295 139.300,228.000 139.484 C 228.725 139.674,228.800 140.030,228.800 143.259 C 228.800 146.060,228.929 146.875,229.400 147.055 C 229.907 147.250,230.000 148.583,230.000 155.643 C 230.000 162.805,229.914 164.000,229.400 164.000 C 228.912 164.000,228.800 164.661,228.800 167.553 C 228.800 170.770,228.724 171.127,228.000 171.316 C 227.320 171.494,227.200 171.862,227.200 173.763 C 227.200 175.733,227.105 176.000,226.400 176.000 C 225.699 176.000,225.600 176.267,225.600 178.153 C 225.600 179.970,225.475 180.339,224.800 180.516 C 224.225 180.666,224.000 181.062,224.000 181.920 C 224.000 182.613,223.748 183.211,223.400 183.345 C 223.070 183.471,222.800 183.830,222.800 184.141 C 222.800 184.452,222.440 184.801,222.000 184.916 C 221.387 185.076,221.200 185.462,221.200 186.563 C 221.200 187.733,221.052 188.000,220.400 188.000 C 219.867 188.000,219.600 188.267,219.600 188.800 C 219.600 189.240,219.396 189.600,219.146 189.600 C 218.636 189.600,216.800 191.458,216.800 191.974 C 216.800 192.157,216.440 192.401,216.000 192.516 C 215.560 192.631,215.200 192.991,215.200 193.316 C 215.200 193.641,214.840 194.001,214.400 194.116 C 213.960 194.231,213.600 194.612,213.600 194.963 C 213.600 195.333,213.265 195.600,212.800 195.600 C 212.360 195.600,212.000 195.849,212.000 196.153 C 212.000 196.458,211.640 196.801,211.200 196.916 C 210.760 197.031,210.400 197.412,210.400 197.763 C 210.400 198.208,210.028 198.400,209.163 198.400 C 208.262 198.400,207.868 198.617,207.716 199.200 C 207.557 199.806,207.170 200.000,206.116 200.000 C 205.062 200.000,204.675 200.194,204.516 200.800 C 204.339 201.475,203.970 201.600,202.153 201.600 C 200.267 201.600,200.000 201.699,200.000 202.400 C 200.000 203.164,199.733 203.200,194.047 203.200 C 188.430 203.200,188.081 203.155,187.884 202.400 C 187.700 201.695,187.338 201.600,184.837 201.600 C 182.267 201.600,182.000 201.525,182.000 200.800 C 182.000 200.133,181.733 200.000,180.400 200.000 C 179.067 200.000,178.800 199.867,178.800 199.200 C 178.800 198.667,178.533 198.400,178.000 198.400 C 177.560 198.400,177.200 198.150,177.200 197.845 C 177.200 197.526,176.602 197.177,175.800 197.026 C 174.962 196.869,174.400 196.530,174.400 196.182 C 174.400 195.862,174.040 195.600,173.600 195.600 C 173.067 195.600,172.800 195.333,172.800 194.800 C 172.800 194.267,172.533 194.000,172.000 194.000 C 171.467 194.000,171.200 193.733,171.200 193.200 C 171.200 192.756,170.933 192.400,170.600 192.400 C 170.270 192.400,170.000 192.113,170.000 191.763 C 170.000 191.412,169.640 191.031,169.200 190.916 C 168.760 190.801,168.400 190.458,168.400 190.153 C 168.400 189.849,168.040 189.600,167.600 189.600 C 166.948 189.600,166.800 189.333,166.800 188.163 C 166.800 187.062,166.613 186.676,166.000 186.516 C 165.557 186.400,165.200 185.970,165.200 185.553 C 165.200 185.067,164.917 184.800,164.400 184.800 C 163.752 184.800,163.600 184.533,163.600 183.400 C 163.600 182.422,163.419 182.000,163.000 182.000 C 162.578 182.000,162.400 181.574,162.400 180.563 C 162.400 179.462,162.213 179.076,161.600 178.916 C 160.925 178.739,160.800 178.370,160.800 176.553 C 160.800 174.667,160.701 174.400,160.000 174.400 C 159.271 174.400,159.200 174.133,159.200 171.400 C 159.200 168.667,159.129 168.400,158.400 168.400 C 157.636 168.400,157.600 168.133,157.600 162.400 C 157.600 157.333,157.507 156.400,157.000 156.400 C 156.667 156.400,156.400 156.044,156.400 155.600 C 156.400 155.156,156.667 154.800,157.000 154.800 C 157.507 154.800,157.600 153.870,157.600 148.827 C 157.600 143.205,157.647 142.839,158.400 142.600 C 159.105 142.376,159.200 141.995,159.200 139.373 C 159.200 136.667,159.272 136.400,160.000 136.400 C 160.701 136.400,160.800 136.133,160.800 134.247 C 160.800 132.430,160.925 132.061,161.600 131.884 C 162.175 131.734,162.400 131.338,162.400 130.480 C 162.400 129.787,162.652 129.189,163.000 129.055 C 163.377 128.911,163.600 128.299,163.600 127.413 C 163.600 126.267,163.751 126.000,164.400 126.000 C 165.048 126.000,165.200 125.733,165.200 124.600 C 165.200 123.467,165.352 123.200,166.000 123.200 C 166.533 123.200,166.800 122.933,166.800 122.400 C 166.800 121.867,167.067 121.600,167.600 121.600 C 168.133 121.600,168.400 121.333,168.400 120.800 C 168.400 120.360,168.658 120.000,168.973 120.000 C 169.288 120.000,169.660 119.640,169.800 119.200 C 169.940 118.760,170.312 118.400,170.627 118.400 C 170.942 118.400,171.200 118.040,171.200 117.600 C 171.200 117.067,171.467 116.800,172.000 116.800 C 172.440 116.800,172.800 116.551,172.800 116.247 C 172.800 115.942,173.160 115.599,173.600 115.484 C 174.040 115.369,174.400 114.988,174.400 114.637 C 174.400 114.287,174.687 114.000,175.037 114.000 C 175.388 114.000,175.769 113.640,175.884 113.200 C 176.041 112.599,176.430 112.400,177.447 112.400 C 178.533 112.400,178.800 112.242,178.800 111.600 C 178.800 110.933,179.067 110.800,180.400 110.800 C 181.496 110.800,182.000 110.626,182.000 110.247 C 182.000 109.848,182.745 109.646,184.671 109.523 C 186.613 109.399,187.459 109.168,187.769 108.677 C 188.348 107.759,200.000 107.638,200.000 108.550 " stroke="none" fill="#0c341c" fill-rule="evenodd"></path><path id="path3" d="" stroke="none" fill="#b0d044" fill-rule="evenodd"></path><path id="path4" d="" stroke="none" fill="#408444" fill-rule="evenodd"></path></g></svg>